%
M48
M72
T01C0.01200
T02C0.01600
T03C0.02000
T04C0.02756
T05C0.03937
T06C0.04000
T07C0.12598
%
T01
X21900Y17400
X21900Y21400
X25900Y21400
X25900Y17400
X82900Y50400
X87900Y50400
X92900Y50400
X92900Y63400
X87900Y63400
X82900Y63400
X82900Y77400
X87900Y77400
X92900Y77400
X104600Y87100
X124100Y82600
X129100Y100600
X139100Y106600
X144100Y102600
X148100Y101100
X152100Y103100
X154600Y108100
X155100Y112600
X159600Y112600
X170600Y113100
X173100Y110100
X173900Y116400
X176900Y119400
X179900Y122400
X185600Y127600
X183600Y130600
X181600Y134100
X174900Y150400
X170900Y150400
X170900Y154400
X174900Y154400
X174100Y165600
X154600Y166100
X143100Y141100
X150100Y126600
X156100Y123100
X143600Y123600
X132600Y113100
X120600Y116100
X120100Y110100
X111600Y107100
X138900Y63400
X142900Y63400
X142900Y59400
X138900Y59400
X102100Y29600
X178100Y87100
X179600Y91600
X180600Y95600
X190100Y97100
X170600Y97100
X204600Y60100
X208600Y59100
X225900Y21900
X225900Y17900
X229900Y17900
X229900Y21900
X242900Y21900
X246900Y21900
X246900Y17900
X242900Y17900
X273900Y78900
X273900Y82900
X273900Y86900
X273900Y90900
X273900Y94900
X277900Y94900
X281900Y94900
X281900Y90900
X277900Y90900
X277900Y86900
X277900Y82900
X281900Y82900
X281900Y86900
X281900Y78900
X277900Y78900
X245100Y100100
X238100Y95600
X218100Y143100
X239400Y163400
X235900Y170900
X250900Y175900
X254900Y175900
X254900Y179400
X250900Y179400
X252900Y168400
X288400Y198400
X288400Y202400
X225900Y204400
X221900Y204400
X221900Y208400
X225900Y208400
X25900Y208400
X25900Y204400
X21900Y204400
X21900Y208400
T02
X189100Y118100
X201600Y167100
T03
X111600Y93100
X73100Y71600
X37100Y87600
X32100Y87600
X27100Y87600
X22100Y87600
X22100Y78600
X17100Y78600
X17100Y73600
X22100Y73600
X27100Y73600
X27100Y78600
X27100Y68600
X27100Y63600
X22100Y63600
X17100Y63600
X17100Y68600
X22100Y68600
X22100Y54600
X27100Y54600
X32100Y54600
X37100Y54600
X37100Y136600
X32100Y136600
X27100Y136600
X22100Y136600
X22100Y144600
X17100Y144600
X17100Y149600
X22100Y149600
X22100Y154600
X17100Y154600
X17100Y159600
X22100Y159600
X22100Y164600
X17100Y164600
X27100Y164600
X27100Y159600
X27100Y154600
X27100Y149600
X27100Y144600
X63100Y140600
X37100Y172600
X32100Y172600
X27100Y172600
X22100Y172600
T04
X258163Y210265
X266037Y210265
X284163Y210265
X292037Y210265
X279037Y17435
X271163Y17435
T05
X298100Y148100
X278100Y158100
X298100Y168100
X23100Y120793
X23100Y107013
T06
X78100Y108100
X88100Y108100
X98100Y108100
X98100Y118100
X88100Y118100
X78100Y118100
X78100Y208100
X68100Y208100
X58100Y208100
X48100Y208100
X88100Y208100
X98100Y208100
X108100Y208100
X118100Y208100
X133100Y208100
X143100Y208100
X153100Y208100
X163100Y208100
X173100Y208100
X183100Y208100
X193100Y208100
X203100Y208100
X289000Y168000
X289000Y158000
X289000Y148000
X288100Y124600
X278100Y123600
X268100Y124600
X258100Y123600
X248100Y124600
X238100Y123600
X228100Y124600
X203100Y128100
X203100Y138100
X203100Y118100
X203100Y108100
X203100Y98100
X203100Y88100
X228100Y53600
X238100Y52600
X248100Y53600
X258100Y52600
X268100Y53600
X278100Y52600
X288100Y53600
X298100Y52600
X203100Y18100
X193100Y18100
X183100Y18100
X173100Y18100
X163100Y18100
X153100Y18100
X133100Y18100
X123100Y18100
X113100Y18100
X103100Y18100
X93100Y18100
X83100Y18100
X298100Y123600
T07
X249100Y143400
X249100Y82400
X27100Y36600
X27100Y191400
M30
