G75*
%MOIN*%
%OFA0B0*%
%FSLAX25Y25*%
%IPPOS*%
%LPD*%
%AMOC8*
5,1,8,0,0,1.08239X$1,22.5*
%
%ADD10C,0.00394*%
%ADD11C,0.00000*%
%ADD12C,0.12998*%
%ADD13R,0.04731X0.04337*%
%ADD14R,0.07800X0.07800*%
%ADD15OC8,0.07800*%
%ADD16C,0.07800*%
%ADD17C,0.01301*%
%ADD18R,0.04337X0.04731*%
%ADD19R,0.09455X0.06699*%
%ADD20R,0.05400X0.02600*%
%ADD21R,0.02600X0.05400*%
%ADD22R,0.06299X0.02165*%
%ADD23C,0.02172*%
%ADD24R,0.13760X0.06040*%
%ADD25R,0.03156X0.03746*%
%ADD26R,0.24809X0.21660*%
%ADD27R,0.06699X0.04337*%
%ADD28C,0.09000*%
%ADD29R,0.07100X0.04100*%
%ADD30R,0.29200X0.26400*%
%ADD31R,0.05124X0.08274*%
%ADD32R,0.12211X0.05912*%
%ADD33C,0.06699*%
D10*
X0012314Y0008797D02*
X0011600Y0009511D01*
X0011277Y0009901D01*
X0010993Y0010321D01*
X0010710Y0010740D01*
X0010465Y0011187D01*
X0010065Y0012128D01*
X0009910Y0012622D01*
X0009805Y0013133D01*
X0009699Y0013645D01*
X0009644Y0014174D01*
X0009644Y0213440D01*
X0009699Y0213969D01*
X0009805Y0214481D01*
X0009910Y0214992D01*
X0010065Y0215486D01*
X0010465Y0216427D01*
X0010710Y0216874D01*
X0010993Y0217294D01*
X0011277Y0217713D01*
X0011600Y0218103D01*
X0012314Y0218817D01*
X0012704Y0219140D01*
X0013123Y0219424D01*
X0013542Y0219707D01*
X0013990Y0219952D01*
X0014931Y0220352D01*
X0015425Y0220507D01*
X0015936Y0220612D01*
X0016448Y0220718D01*
X0016977Y0220773D01*
X0300832Y0220773D01*
X0301361Y0220718D01*
X0301872Y0220612D01*
X0302383Y0220507D01*
X0302877Y0220352D01*
X0303818Y0219952D01*
X0304266Y0219707D01*
X0304685Y0219424D01*
X0305104Y0219140D01*
X0305495Y0218817D01*
X0306208Y0218103D01*
X0306531Y0217713D01*
X0306815Y0217294D01*
X0307099Y0216874D01*
X0307343Y0216427D01*
X0307743Y0215486D01*
X0307898Y0214992D01*
X0308004Y0214481D01*
X0308109Y0213969D01*
X0308164Y0213440D01*
X0308164Y0014174D01*
X0308109Y0013645D01*
X0308004Y0013133D01*
X0307898Y0012622D01*
X0307743Y0012128D01*
X0307343Y0011187D01*
X0307099Y0010740D01*
X0306815Y0010321D01*
X0306531Y0009901D01*
X0306208Y0009511D01*
X0305495Y0008797D01*
X0305104Y0008474D01*
X0304685Y0008191D01*
X0304266Y0007907D01*
X0303818Y0007662D01*
X0302877Y0007262D01*
X0302383Y0007107D01*
X0301872Y0007002D01*
X0301361Y0006896D01*
X0300832Y0006841D01*
X0016977Y0006841D01*
X0016448Y0006896D01*
X0015936Y0007002D01*
X0015425Y0007107D01*
X0014931Y0007262D01*
X0013990Y0007662D01*
X0013542Y0007907D01*
X0013123Y0008191D01*
X0012704Y0008474D01*
X0012314Y0008797D01*
D11*
X0020801Y0036600D02*
X0020803Y0036758D01*
X0020809Y0036916D01*
X0020819Y0037074D01*
X0020833Y0037232D01*
X0020851Y0037389D01*
X0020872Y0037546D01*
X0020898Y0037702D01*
X0020928Y0037858D01*
X0020961Y0038013D01*
X0020999Y0038166D01*
X0021040Y0038319D01*
X0021085Y0038471D01*
X0021134Y0038622D01*
X0021187Y0038771D01*
X0021243Y0038919D01*
X0021303Y0039065D01*
X0021367Y0039210D01*
X0021435Y0039353D01*
X0021506Y0039495D01*
X0021580Y0039635D01*
X0021658Y0039772D01*
X0021740Y0039908D01*
X0021824Y0040042D01*
X0021913Y0040173D01*
X0022004Y0040302D01*
X0022099Y0040429D01*
X0022196Y0040554D01*
X0022297Y0040676D01*
X0022401Y0040795D01*
X0022508Y0040912D01*
X0022618Y0041026D01*
X0022731Y0041137D01*
X0022846Y0041246D01*
X0022964Y0041351D01*
X0023085Y0041453D01*
X0023208Y0041553D01*
X0023334Y0041649D01*
X0023462Y0041742D01*
X0023592Y0041832D01*
X0023725Y0041918D01*
X0023860Y0042002D01*
X0023996Y0042081D01*
X0024135Y0042158D01*
X0024276Y0042230D01*
X0024418Y0042300D01*
X0024562Y0042365D01*
X0024708Y0042427D01*
X0024855Y0042485D01*
X0025004Y0042540D01*
X0025154Y0042591D01*
X0025305Y0042638D01*
X0025457Y0042681D01*
X0025610Y0042720D01*
X0025765Y0042756D01*
X0025920Y0042787D01*
X0026076Y0042815D01*
X0026232Y0042839D01*
X0026389Y0042859D01*
X0026547Y0042875D01*
X0026704Y0042887D01*
X0026863Y0042895D01*
X0027021Y0042899D01*
X0027179Y0042899D01*
X0027337Y0042895D01*
X0027496Y0042887D01*
X0027653Y0042875D01*
X0027811Y0042859D01*
X0027968Y0042839D01*
X0028124Y0042815D01*
X0028280Y0042787D01*
X0028435Y0042756D01*
X0028590Y0042720D01*
X0028743Y0042681D01*
X0028895Y0042638D01*
X0029046Y0042591D01*
X0029196Y0042540D01*
X0029345Y0042485D01*
X0029492Y0042427D01*
X0029638Y0042365D01*
X0029782Y0042300D01*
X0029924Y0042230D01*
X0030065Y0042158D01*
X0030204Y0042081D01*
X0030340Y0042002D01*
X0030475Y0041918D01*
X0030608Y0041832D01*
X0030738Y0041742D01*
X0030866Y0041649D01*
X0030992Y0041553D01*
X0031115Y0041453D01*
X0031236Y0041351D01*
X0031354Y0041246D01*
X0031469Y0041137D01*
X0031582Y0041026D01*
X0031692Y0040912D01*
X0031799Y0040795D01*
X0031903Y0040676D01*
X0032004Y0040554D01*
X0032101Y0040429D01*
X0032196Y0040302D01*
X0032287Y0040173D01*
X0032376Y0040042D01*
X0032460Y0039908D01*
X0032542Y0039772D01*
X0032620Y0039635D01*
X0032694Y0039495D01*
X0032765Y0039353D01*
X0032833Y0039210D01*
X0032897Y0039065D01*
X0032957Y0038919D01*
X0033013Y0038771D01*
X0033066Y0038622D01*
X0033115Y0038471D01*
X0033160Y0038319D01*
X0033201Y0038166D01*
X0033239Y0038013D01*
X0033272Y0037858D01*
X0033302Y0037702D01*
X0033328Y0037546D01*
X0033349Y0037389D01*
X0033367Y0037232D01*
X0033381Y0037074D01*
X0033391Y0036916D01*
X0033397Y0036758D01*
X0033399Y0036600D01*
X0033397Y0036442D01*
X0033391Y0036284D01*
X0033381Y0036126D01*
X0033367Y0035968D01*
X0033349Y0035811D01*
X0033328Y0035654D01*
X0033302Y0035498D01*
X0033272Y0035342D01*
X0033239Y0035187D01*
X0033201Y0035034D01*
X0033160Y0034881D01*
X0033115Y0034729D01*
X0033066Y0034578D01*
X0033013Y0034429D01*
X0032957Y0034281D01*
X0032897Y0034135D01*
X0032833Y0033990D01*
X0032765Y0033847D01*
X0032694Y0033705D01*
X0032620Y0033565D01*
X0032542Y0033428D01*
X0032460Y0033292D01*
X0032376Y0033158D01*
X0032287Y0033027D01*
X0032196Y0032898D01*
X0032101Y0032771D01*
X0032004Y0032646D01*
X0031903Y0032524D01*
X0031799Y0032405D01*
X0031692Y0032288D01*
X0031582Y0032174D01*
X0031469Y0032063D01*
X0031354Y0031954D01*
X0031236Y0031849D01*
X0031115Y0031747D01*
X0030992Y0031647D01*
X0030866Y0031551D01*
X0030738Y0031458D01*
X0030608Y0031368D01*
X0030475Y0031282D01*
X0030340Y0031198D01*
X0030204Y0031119D01*
X0030065Y0031042D01*
X0029924Y0030970D01*
X0029782Y0030900D01*
X0029638Y0030835D01*
X0029492Y0030773D01*
X0029345Y0030715D01*
X0029196Y0030660D01*
X0029046Y0030609D01*
X0028895Y0030562D01*
X0028743Y0030519D01*
X0028590Y0030480D01*
X0028435Y0030444D01*
X0028280Y0030413D01*
X0028124Y0030385D01*
X0027968Y0030361D01*
X0027811Y0030341D01*
X0027653Y0030325D01*
X0027496Y0030313D01*
X0027337Y0030305D01*
X0027179Y0030301D01*
X0027021Y0030301D01*
X0026863Y0030305D01*
X0026704Y0030313D01*
X0026547Y0030325D01*
X0026389Y0030341D01*
X0026232Y0030361D01*
X0026076Y0030385D01*
X0025920Y0030413D01*
X0025765Y0030444D01*
X0025610Y0030480D01*
X0025457Y0030519D01*
X0025305Y0030562D01*
X0025154Y0030609D01*
X0025004Y0030660D01*
X0024855Y0030715D01*
X0024708Y0030773D01*
X0024562Y0030835D01*
X0024418Y0030900D01*
X0024276Y0030970D01*
X0024135Y0031042D01*
X0023996Y0031119D01*
X0023860Y0031198D01*
X0023725Y0031282D01*
X0023592Y0031368D01*
X0023462Y0031458D01*
X0023334Y0031551D01*
X0023208Y0031647D01*
X0023085Y0031747D01*
X0022964Y0031849D01*
X0022846Y0031954D01*
X0022731Y0032063D01*
X0022618Y0032174D01*
X0022508Y0032288D01*
X0022401Y0032405D01*
X0022297Y0032524D01*
X0022196Y0032646D01*
X0022099Y0032771D01*
X0022004Y0032898D01*
X0021913Y0033027D01*
X0021824Y0033158D01*
X0021740Y0033292D01*
X0021658Y0033428D01*
X0021580Y0033565D01*
X0021506Y0033705D01*
X0021435Y0033847D01*
X0021367Y0033990D01*
X0021303Y0034135D01*
X0021243Y0034281D01*
X0021187Y0034429D01*
X0021134Y0034578D01*
X0021085Y0034729D01*
X0021040Y0034881D01*
X0020999Y0035034D01*
X0020961Y0035187D01*
X0020928Y0035342D01*
X0020898Y0035498D01*
X0020872Y0035654D01*
X0020851Y0035811D01*
X0020833Y0035968D01*
X0020819Y0036126D01*
X0020809Y0036284D01*
X0020803Y0036442D01*
X0020801Y0036600D01*
X0020801Y0191400D02*
X0020803Y0191558D01*
X0020809Y0191716D01*
X0020819Y0191874D01*
X0020833Y0192032D01*
X0020851Y0192189D01*
X0020872Y0192346D01*
X0020898Y0192502D01*
X0020928Y0192658D01*
X0020961Y0192813D01*
X0020999Y0192966D01*
X0021040Y0193119D01*
X0021085Y0193271D01*
X0021134Y0193422D01*
X0021187Y0193571D01*
X0021243Y0193719D01*
X0021303Y0193865D01*
X0021367Y0194010D01*
X0021435Y0194153D01*
X0021506Y0194295D01*
X0021580Y0194435D01*
X0021658Y0194572D01*
X0021740Y0194708D01*
X0021824Y0194842D01*
X0021913Y0194973D01*
X0022004Y0195102D01*
X0022099Y0195229D01*
X0022196Y0195354D01*
X0022297Y0195476D01*
X0022401Y0195595D01*
X0022508Y0195712D01*
X0022618Y0195826D01*
X0022731Y0195937D01*
X0022846Y0196046D01*
X0022964Y0196151D01*
X0023085Y0196253D01*
X0023208Y0196353D01*
X0023334Y0196449D01*
X0023462Y0196542D01*
X0023592Y0196632D01*
X0023725Y0196718D01*
X0023860Y0196802D01*
X0023996Y0196881D01*
X0024135Y0196958D01*
X0024276Y0197030D01*
X0024418Y0197100D01*
X0024562Y0197165D01*
X0024708Y0197227D01*
X0024855Y0197285D01*
X0025004Y0197340D01*
X0025154Y0197391D01*
X0025305Y0197438D01*
X0025457Y0197481D01*
X0025610Y0197520D01*
X0025765Y0197556D01*
X0025920Y0197587D01*
X0026076Y0197615D01*
X0026232Y0197639D01*
X0026389Y0197659D01*
X0026547Y0197675D01*
X0026704Y0197687D01*
X0026863Y0197695D01*
X0027021Y0197699D01*
X0027179Y0197699D01*
X0027337Y0197695D01*
X0027496Y0197687D01*
X0027653Y0197675D01*
X0027811Y0197659D01*
X0027968Y0197639D01*
X0028124Y0197615D01*
X0028280Y0197587D01*
X0028435Y0197556D01*
X0028590Y0197520D01*
X0028743Y0197481D01*
X0028895Y0197438D01*
X0029046Y0197391D01*
X0029196Y0197340D01*
X0029345Y0197285D01*
X0029492Y0197227D01*
X0029638Y0197165D01*
X0029782Y0197100D01*
X0029924Y0197030D01*
X0030065Y0196958D01*
X0030204Y0196881D01*
X0030340Y0196802D01*
X0030475Y0196718D01*
X0030608Y0196632D01*
X0030738Y0196542D01*
X0030866Y0196449D01*
X0030992Y0196353D01*
X0031115Y0196253D01*
X0031236Y0196151D01*
X0031354Y0196046D01*
X0031469Y0195937D01*
X0031582Y0195826D01*
X0031692Y0195712D01*
X0031799Y0195595D01*
X0031903Y0195476D01*
X0032004Y0195354D01*
X0032101Y0195229D01*
X0032196Y0195102D01*
X0032287Y0194973D01*
X0032376Y0194842D01*
X0032460Y0194708D01*
X0032542Y0194572D01*
X0032620Y0194435D01*
X0032694Y0194295D01*
X0032765Y0194153D01*
X0032833Y0194010D01*
X0032897Y0193865D01*
X0032957Y0193719D01*
X0033013Y0193571D01*
X0033066Y0193422D01*
X0033115Y0193271D01*
X0033160Y0193119D01*
X0033201Y0192966D01*
X0033239Y0192813D01*
X0033272Y0192658D01*
X0033302Y0192502D01*
X0033328Y0192346D01*
X0033349Y0192189D01*
X0033367Y0192032D01*
X0033381Y0191874D01*
X0033391Y0191716D01*
X0033397Y0191558D01*
X0033399Y0191400D01*
X0033397Y0191242D01*
X0033391Y0191084D01*
X0033381Y0190926D01*
X0033367Y0190768D01*
X0033349Y0190611D01*
X0033328Y0190454D01*
X0033302Y0190298D01*
X0033272Y0190142D01*
X0033239Y0189987D01*
X0033201Y0189834D01*
X0033160Y0189681D01*
X0033115Y0189529D01*
X0033066Y0189378D01*
X0033013Y0189229D01*
X0032957Y0189081D01*
X0032897Y0188935D01*
X0032833Y0188790D01*
X0032765Y0188647D01*
X0032694Y0188505D01*
X0032620Y0188365D01*
X0032542Y0188228D01*
X0032460Y0188092D01*
X0032376Y0187958D01*
X0032287Y0187827D01*
X0032196Y0187698D01*
X0032101Y0187571D01*
X0032004Y0187446D01*
X0031903Y0187324D01*
X0031799Y0187205D01*
X0031692Y0187088D01*
X0031582Y0186974D01*
X0031469Y0186863D01*
X0031354Y0186754D01*
X0031236Y0186649D01*
X0031115Y0186547D01*
X0030992Y0186447D01*
X0030866Y0186351D01*
X0030738Y0186258D01*
X0030608Y0186168D01*
X0030475Y0186082D01*
X0030340Y0185998D01*
X0030204Y0185919D01*
X0030065Y0185842D01*
X0029924Y0185770D01*
X0029782Y0185700D01*
X0029638Y0185635D01*
X0029492Y0185573D01*
X0029345Y0185515D01*
X0029196Y0185460D01*
X0029046Y0185409D01*
X0028895Y0185362D01*
X0028743Y0185319D01*
X0028590Y0185280D01*
X0028435Y0185244D01*
X0028280Y0185213D01*
X0028124Y0185185D01*
X0027968Y0185161D01*
X0027811Y0185141D01*
X0027653Y0185125D01*
X0027496Y0185113D01*
X0027337Y0185105D01*
X0027179Y0185101D01*
X0027021Y0185101D01*
X0026863Y0185105D01*
X0026704Y0185113D01*
X0026547Y0185125D01*
X0026389Y0185141D01*
X0026232Y0185161D01*
X0026076Y0185185D01*
X0025920Y0185213D01*
X0025765Y0185244D01*
X0025610Y0185280D01*
X0025457Y0185319D01*
X0025305Y0185362D01*
X0025154Y0185409D01*
X0025004Y0185460D01*
X0024855Y0185515D01*
X0024708Y0185573D01*
X0024562Y0185635D01*
X0024418Y0185700D01*
X0024276Y0185770D01*
X0024135Y0185842D01*
X0023996Y0185919D01*
X0023860Y0185998D01*
X0023725Y0186082D01*
X0023592Y0186168D01*
X0023462Y0186258D01*
X0023334Y0186351D01*
X0023208Y0186447D01*
X0023085Y0186547D01*
X0022964Y0186649D01*
X0022846Y0186754D01*
X0022731Y0186863D01*
X0022618Y0186974D01*
X0022508Y0187088D01*
X0022401Y0187205D01*
X0022297Y0187324D01*
X0022196Y0187446D01*
X0022099Y0187571D01*
X0022004Y0187698D01*
X0021913Y0187827D01*
X0021824Y0187958D01*
X0021740Y0188092D01*
X0021658Y0188228D01*
X0021580Y0188365D01*
X0021506Y0188505D01*
X0021435Y0188647D01*
X0021367Y0188790D01*
X0021303Y0188935D01*
X0021243Y0189081D01*
X0021187Y0189229D01*
X0021134Y0189378D01*
X0021085Y0189529D01*
X0021040Y0189681D01*
X0020999Y0189834D01*
X0020961Y0189987D01*
X0020928Y0190142D01*
X0020898Y0190298D01*
X0020872Y0190454D01*
X0020851Y0190611D01*
X0020833Y0190768D01*
X0020819Y0190926D01*
X0020809Y0191084D01*
X0020803Y0191242D01*
X0020801Y0191400D01*
X0242801Y0143400D02*
X0242803Y0143558D01*
X0242809Y0143716D01*
X0242819Y0143874D01*
X0242833Y0144032D01*
X0242851Y0144189D01*
X0242872Y0144346D01*
X0242898Y0144502D01*
X0242928Y0144658D01*
X0242961Y0144813D01*
X0242999Y0144966D01*
X0243040Y0145119D01*
X0243085Y0145271D01*
X0243134Y0145422D01*
X0243187Y0145571D01*
X0243243Y0145719D01*
X0243303Y0145865D01*
X0243367Y0146010D01*
X0243435Y0146153D01*
X0243506Y0146295D01*
X0243580Y0146435D01*
X0243658Y0146572D01*
X0243740Y0146708D01*
X0243824Y0146842D01*
X0243913Y0146973D01*
X0244004Y0147102D01*
X0244099Y0147229D01*
X0244196Y0147354D01*
X0244297Y0147476D01*
X0244401Y0147595D01*
X0244508Y0147712D01*
X0244618Y0147826D01*
X0244731Y0147937D01*
X0244846Y0148046D01*
X0244964Y0148151D01*
X0245085Y0148253D01*
X0245208Y0148353D01*
X0245334Y0148449D01*
X0245462Y0148542D01*
X0245592Y0148632D01*
X0245725Y0148718D01*
X0245860Y0148802D01*
X0245996Y0148881D01*
X0246135Y0148958D01*
X0246276Y0149030D01*
X0246418Y0149100D01*
X0246562Y0149165D01*
X0246708Y0149227D01*
X0246855Y0149285D01*
X0247004Y0149340D01*
X0247154Y0149391D01*
X0247305Y0149438D01*
X0247457Y0149481D01*
X0247610Y0149520D01*
X0247765Y0149556D01*
X0247920Y0149587D01*
X0248076Y0149615D01*
X0248232Y0149639D01*
X0248389Y0149659D01*
X0248547Y0149675D01*
X0248704Y0149687D01*
X0248863Y0149695D01*
X0249021Y0149699D01*
X0249179Y0149699D01*
X0249337Y0149695D01*
X0249496Y0149687D01*
X0249653Y0149675D01*
X0249811Y0149659D01*
X0249968Y0149639D01*
X0250124Y0149615D01*
X0250280Y0149587D01*
X0250435Y0149556D01*
X0250590Y0149520D01*
X0250743Y0149481D01*
X0250895Y0149438D01*
X0251046Y0149391D01*
X0251196Y0149340D01*
X0251345Y0149285D01*
X0251492Y0149227D01*
X0251638Y0149165D01*
X0251782Y0149100D01*
X0251924Y0149030D01*
X0252065Y0148958D01*
X0252204Y0148881D01*
X0252340Y0148802D01*
X0252475Y0148718D01*
X0252608Y0148632D01*
X0252738Y0148542D01*
X0252866Y0148449D01*
X0252992Y0148353D01*
X0253115Y0148253D01*
X0253236Y0148151D01*
X0253354Y0148046D01*
X0253469Y0147937D01*
X0253582Y0147826D01*
X0253692Y0147712D01*
X0253799Y0147595D01*
X0253903Y0147476D01*
X0254004Y0147354D01*
X0254101Y0147229D01*
X0254196Y0147102D01*
X0254287Y0146973D01*
X0254376Y0146842D01*
X0254460Y0146708D01*
X0254542Y0146572D01*
X0254620Y0146435D01*
X0254694Y0146295D01*
X0254765Y0146153D01*
X0254833Y0146010D01*
X0254897Y0145865D01*
X0254957Y0145719D01*
X0255013Y0145571D01*
X0255066Y0145422D01*
X0255115Y0145271D01*
X0255160Y0145119D01*
X0255201Y0144966D01*
X0255239Y0144813D01*
X0255272Y0144658D01*
X0255302Y0144502D01*
X0255328Y0144346D01*
X0255349Y0144189D01*
X0255367Y0144032D01*
X0255381Y0143874D01*
X0255391Y0143716D01*
X0255397Y0143558D01*
X0255399Y0143400D01*
X0255397Y0143242D01*
X0255391Y0143084D01*
X0255381Y0142926D01*
X0255367Y0142768D01*
X0255349Y0142611D01*
X0255328Y0142454D01*
X0255302Y0142298D01*
X0255272Y0142142D01*
X0255239Y0141987D01*
X0255201Y0141834D01*
X0255160Y0141681D01*
X0255115Y0141529D01*
X0255066Y0141378D01*
X0255013Y0141229D01*
X0254957Y0141081D01*
X0254897Y0140935D01*
X0254833Y0140790D01*
X0254765Y0140647D01*
X0254694Y0140505D01*
X0254620Y0140365D01*
X0254542Y0140228D01*
X0254460Y0140092D01*
X0254376Y0139958D01*
X0254287Y0139827D01*
X0254196Y0139698D01*
X0254101Y0139571D01*
X0254004Y0139446D01*
X0253903Y0139324D01*
X0253799Y0139205D01*
X0253692Y0139088D01*
X0253582Y0138974D01*
X0253469Y0138863D01*
X0253354Y0138754D01*
X0253236Y0138649D01*
X0253115Y0138547D01*
X0252992Y0138447D01*
X0252866Y0138351D01*
X0252738Y0138258D01*
X0252608Y0138168D01*
X0252475Y0138082D01*
X0252340Y0137998D01*
X0252204Y0137919D01*
X0252065Y0137842D01*
X0251924Y0137770D01*
X0251782Y0137700D01*
X0251638Y0137635D01*
X0251492Y0137573D01*
X0251345Y0137515D01*
X0251196Y0137460D01*
X0251046Y0137409D01*
X0250895Y0137362D01*
X0250743Y0137319D01*
X0250590Y0137280D01*
X0250435Y0137244D01*
X0250280Y0137213D01*
X0250124Y0137185D01*
X0249968Y0137161D01*
X0249811Y0137141D01*
X0249653Y0137125D01*
X0249496Y0137113D01*
X0249337Y0137105D01*
X0249179Y0137101D01*
X0249021Y0137101D01*
X0248863Y0137105D01*
X0248704Y0137113D01*
X0248547Y0137125D01*
X0248389Y0137141D01*
X0248232Y0137161D01*
X0248076Y0137185D01*
X0247920Y0137213D01*
X0247765Y0137244D01*
X0247610Y0137280D01*
X0247457Y0137319D01*
X0247305Y0137362D01*
X0247154Y0137409D01*
X0247004Y0137460D01*
X0246855Y0137515D01*
X0246708Y0137573D01*
X0246562Y0137635D01*
X0246418Y0137700D01*
X0246276Y0137770D01*
X0246135Y0137842D01*
X0245996Y0137919D01*
X0245860Y0137998D01*
X0245725Y0138082D01*
X0245592Y0138168D01*
X0245462Y0138258D01*
X0245334Y0138351D01*
X0245208Y0138447D01*
X0245085Y0138547D01*
X0244964Y0138649D01*
X0244846Y0138754D01*
X0244731Y0138863D01*
X0244618Y0138974D01*
X0244508Y0139088D01*
X0244401Y0139205D01*
X0244297Y0139324D01*
X0244196Y0139446D01*
X0244099Y0139571D01*
X0244004Y0139698D01*
X0243913Y0139827D01*
X0243824Y0139958D01*
X0243740Y0140092D01*
X0243658Y0140228D01*
X0243580Y0140365D01*
X0243506Y0140505D01*
X0243435Y0140647D01*
X0243367Y0140790D01*
X0243303Y0140935D01*
X0243243Y0141081D01*
X0243187Y0141229D01*
X0243134Y0141378D01*
X0243085Y0141529D01*
X0243040Y0141681D01*
X0242999Y0141834D01*
X0242961Y0141987D01*
X0242928Y0142142D01*
X0242898Y0142298D01*
X0242872Y0142454D01*
X0242851Y0142611D01*
X0242833Y0142768D01*
X0242819Y0142926D01*
X0242809Y0143084D01*
X0242803Y0143242D01*
X0242801Y0143400D01*
X0242801Y0082400D02*
X0242803Y0082558D01*
X0242809Y0082716D01*
X0242819Y0082874D01*
X0242833Y0083032D01*
X0242851Y0083189D01*
X0242872Y0083346D01*
X0242898Y0083502D01*
X0242928Y0083658D01*
X0242961Y0083813D01*
X0242999Y0083966D01*
X0243040Y0084119D01*
X0243085Y0084271D01*
X0243134Y0084422D01*
X0243187Y0084571D01*
X0243243Y0084719D01*
X0243303Y0084865D01*
X0243367Y0085010D01*
X0243435Y0085153D01*
X0243506Y0085295D01*
X0243580Y0085435D01*
X0243658Y0085572D01*
X0243740Y0085708D01*
X0243824Y0085842D01*
X0243913Y0085973D01*
X0244004Y0086102D01*
X0244099Y0086229D01*
X0244196Y0086354D01*
X0244297Y0086476D01*
X0244401Y0086595D01*
X0244508Y0086712D01*
X0244618Y0086826D01*
X0244731Y0086937D01*
X0244846Y0087046D01*
X0244964Y0087151D01*
X0245085Y0087253D01*
X0245208Y0087353D01*
X0245334Y0087449D01*
X0245462Y0087542D01*
X0245592Y0087632D01*
X0245725Y0087718D01*
X0245860Y0087802D01*
X0245996Y0087881D01*
X0246135Y0087958D01*
X0246276Y0088030D01*
X0246418Y0088100D01*
X0246562Y0088165D01*
X0246708Y0088227D01*
X0246855Y0088285D01*
X0247004Y0088340D01*
X0247154Y0088391D01*
X0247305Y0088438D01*
X0247457Y0088481D01*
X0247610Y0088520D01*
X0247765Y0088556D01*
X0247920Y0088587D01*
X0248076Y0088615D01*
X0248232Y0088639D01*
X0248389Y0088659D01*
X0248547Y0088675D01*
X0248704Y0088687D01*
X0248863Y0088695D01*
X0249021Y0088699D01*
X0249179Y0088699D01*
X0249337Y0088695D01*
X0249496Y0088687D01*
X0249653Y0088675D01*
X0249811Y0088659D01*
X0249968Y0088639D01*
X0250124Y0088615D01*
X0250280Y0088587D01*
X0250435Y0088556D01*
X0250590Y0088520D01*
X0250743Y0088481D01*
X0250895Y0088438D01*
X0251046Y0088391D01*
X0251196Y0088340D01*
X0251345Y0088285D01*
X0251492Y0088227D01*
X0251638Y0088165D01*
X0251782Y0088100D01*
X0251924Y0088030D01*
X0252065Y0087958D01*
X0252204Y0087881D01*
X0252340Y0087802D01*
X0252475Y0087718D01*
X0252608Y0087632D01*
X0252738Y0087542D01*
X0252866Y0087449D01*
X0252992Y0087353D01*
X0253115Y0087253D01*
X0253236Y0087151D01*
X0253354Y0087046D01*
X0253469Y0086937D01*
X0253582Y0086826D01*
X0253692Y0086712D01*
X0253799Y0086595D01*
X0253903Y0086476D01*
X0254004Y0086354D01*
X0254101Y0086229D01*
X0254196Y0086102D01*
X0254287Y0085973D01*
X0254376Y0085842D01*
X0254460Y0085708D01*
X0254542Y0085572D01*
X0254620Y0085435D01*
X0254694Y0085295D01*
X0254765Y0085153D01*
X0254833Y0085010D01*
X0254897Y0084865D01*
X0254957Y0084719D01*
X0255013Y0084571D01*
X0255066Y0084422D01*
X0255115Y0084271D01*
X0255160Y0084119D01*
X0255201Y0083966D01*
X0255239Y0083813D01*
X0255272Y0083658D01*
X0255302Y0083502D01*
X0255328Y0083346D01*
X0255349Y0083189D01*
X0255367Y0083032D01*
X0255381Y0082874D01*
X0255391Y0082716D01*
X0255397Y0082558D01*
X0255399Y0082400D01*
X0255397Y0082242D01*
X0255391Y0082084D01*
X0255381Y0081926D01*
X0255367Y0081768D01*
X0255349Y0081611D01*
X0255328Y0081454D01*
X0255302Y0081298D01*
X0255272Y0081142D01*
X0255239Y0080987D01*
X0255201Y0080834D01*
X0255160Y0080681D01*
X0255115Y0080529D01*
X0255066Y0080378D01*
X0255013Y0080229D01*
X0254957Y0080081D01*
X0254897Y0079935D01*
X0254833Y0079790D01*
X0254765Y0079647D01*
X0254694Y0079505D01*
X0254620Y0079365D01*
X0254542Y0079228D01*
X0254460Y0079092D01*
X0254376Y0078958D01*
X0254287Y0078827D01*
X0254196Y0078698D01*
X0254101Y0078571D01*
X0254004Y0078446D01*
X0253903Y0078324D01*
X0253799Y0078205D01*
X0253692Y0078088D01*
X0253582Y0077974D01*
X0253469Y0077863D01*
X0253354Y0077754D01*
X0253236Y0077649D01*
X0253115Y0077547D01*
X0252992Y0077447D01*
X0252866Y0077351D01*
X0252738Y0077258D01*
X0252608Y0077168D01*
X0252475Y0077082D01*
X0252340Y0076998D01*
X0252204Y0076919D01*
X0252065Y0076842D01*
X0251924Y0076770D01*
X0251782Y0076700D01*
X0251638Y0076635D01*
X0251492Y0076573D01*
X0251345Y0076515D01*
X0251196Y0076460D01*
X0251046Y0076409D01*
X0250895Y0076362D01*
X0250743Y0076319D01*
X0250590Y0076280D01*
X0250435Y0076244D01*
X0250280Y0076213D01*
X0250124Y0076185D01*
X0249968Y0076161D01*
X0249811Y0076141D01*
X0249653Y0076125D01*
X0249496Y0076113D01*
X0249337Y0076105D01*
X0249179Y0076101D01*
X0249021Y0076101D01*
X0248863Y0076105D01*
X0248704Y0076113D01*
X0248547Y0076125D01*
X0248389Y0076141D01*
X0248232Y0076161D01*
X0248076Y0076185D01*
X0247920Y0076213D01*
X0247765Y0076244D01*
X0247610Y0076280D01*
X0247457Y0076319D01*
X0247305Y0076362D01*
X0247154Y0076409D01*
X0247004Y0076460D01*
X0246855Y0076515D01*
X0246708Y0076573D01*
X0246562Y0076635D01*
X0246418Y0076700D01*
X0246276Y0076770D01*
X0246135Y0076842D01*
X0245996Y0076919D01*
X0245860Y0076998D01*
X0245725Y0077082D01*
X0245592Y0077168D01*
X0245462Y0077258D01*
X0245334Y0077351D01*
X0245208Y0077447D01*
X0245085Y0077547D01*
X0244964Y0077649D01*
X0244846Y0077754D01*
X0244731Y0077863D01*
X0244618Y0077974D01*
X0244508Y0078088D01*
X0244401Y0078205D01*
X0244297Y0078324D01*
X0244196Y0078446D01*
X0244099Y0078571D01*
X0244004Y0078698D01*
X0243913Y0078827D01*
X0243824Y0078958D01*
X0243740Y0079092D01*
X0243658Y0079228D01*
X0243580Y0079365D01*
X0243506Y0079505D01*
X0243435Y0079647D01*
X0243367Y0079790D01*
X0243303Y0079935D01*
X0243243Y0080081D01*
X0243187Y0080229D01*
X0243134Y0080378D01*
X0243085Y0080529D01*
X0243040Y0080681D01*
X0242999Y0080834D01*
X0242961Y0080987D01*
X0242928Y0081142D01*
X0242898Y0081298D01*
X0242872Y0081454D01*
X0242851Y0081611D01*
X0242833Y0081768D01*
X0242819Y0081926D01*
X0242809Y0082084D01*
X0242803Y0082242D01*
X0242801Y0082400D01*
D12*
X0249100Y0082400D03*
X0249100Y0143400D03*
X0027100Y0191400D03*
X0027100Y0036600D03*
D13*
X0053254Y0047600D03*
X0059946Y0047600D03*
X0106100Y0072754D03*
X0106100Y0079446D03*
X0122100Y0077946D03*
X0122100Y0071254D03*
G36*
X0132605Y0087029D02*
X0129261Y0090373D01*
X0132327Y0093439D01*
X0135671Y0090095D01*
X0132605Y0087029D01*
G37*
G36*
X0127873Y0091761D02*
X0124529Y0095105D01*
X0127595Y0098171D01*
X0130939Y0094827D01*
X0127873Y0091761D01*
G37*
G36*
X0123327Y0102439D02*
X0126671Y0099095D01*
X0123605Y0096029D01*
X0120261Y0099373D01*
X0123327Y0102439D01*
G37*
G36*
X0118595Y0107171D02*
X0121939Y0103827D01*
X0118873Y0100761D01*
X0115529Y0104105D01*
X0118595Y0107171D01*
G37*
G36*
X0167873Y0126761D02*
X0164529Y0130105D01*
X0167595Y0133171D01*
X0170939Y0129827D01*
X0167873Y0126761D01*
G37*
G36*
X0172605Y0122029D02*
X0169261Y0125373D01*
X0172327Y0128439D01*
X0175671Y0125095D01*
X0172605Y0122029D01*
G37*
X0211654Y0157100D03*
X0218346Y0157100D03*
X0259754Y0157100D03*
X0266446Y0157100D03*
X0248100Y0111446D03*
X0248100Y0104754D03*
X0238100Y0104754D03*
X0238100Y0111446D03*
X0161446Y0173100D03*
X0154754Y0173100D03*
X0060946Y0093100D03*
X0054254Y0093100D03*
D14*
X0078100Y0108100D03*
X0203100Y0088100D03*
X0289000Y0148000D03*
X0298100Y0123600D03*
X0298100Y0052600D03*
D15*
X0098100Y0108100D03*
X0088100Y0108100D03*
X0088100Y0118100D03*
X0078100Y0118100D03*
X0098100Y0118100D03*
D16*
X0203100Y0118100D03*
X0203100Y0108100D03*
X0203100Y0098100D03*
X0228100Y0124600D03*
X0238100Y0123600D03*
X0248100Y0124600D03*
X0258100Y0123600D03*
X0268100Y0124600D03*
X0278100Y0123600D03*
X0288100Y0124600D03*
X0298100Y0148100D03*
X0289000Y0158000D03*
X0278100Y0158100D03*
X0289000Y0168000D03*
X0298100Y0168100D03*
X0203100Y0138100D03*
X0203100Y0128100D03*
X0228100Y0053600D03*
X0238100Y0052600D03*
X0248100Y0053600D03*
X0258100Y0052600D03*
X0268100Y0053600D03*
X0278100Y0052600D03*
X0288100Y0053600D03*
X0203100Y0018100D03*
X0193100Y0018100D03*
X0183100Y0018100D03*
X0173100Y0018100D03*
X0163100Y0018100D03*
X0153100Y0018100D03*
X0133100Y0018100D03*
X0123100Y0018100D03*
X0113100Y0018100D03*
X0103100Y0018100D03*
X0093100Y0018100D03*
X0083100Y0018100D03*
X0078100Y0208100D03*
X0068100Y0208100D03*
X0058100Y0208100D03*
X0048100Y0208100D03*
X0088100Y0208100D03*
X0098100Y0208100D03*
X0108100Y0208100D03*
X0118100Y0208100D03*
X0133100Y0208100D03*
X0143100Y0208100D03*
X0153100Y0208100D03*
X0163100Y0208100D03*
X0173100Y0208100D03*
X0183100Y0208100D03*
X0193100Y0208100D03*
X0203100Y0208100D03*
D17*
X0123618Y0065571D02*
X0120582Y0065571D01*
X0123618Y0065571D02*
X0123618Y0062535D01*
X0120582Y0062535D01*
X0120582Y0065571D01*
X0120582Y0063835D02*
X0123618Y0063835D01*
X0123618Y0065135D02*
X0120582Y0065135D01*
X0120582Y0058665D02*
X0123618Y0058665D01*
X0123618Y0055629D01*
X0120582Y0055629D01*
X0120582Y0058665D01*
X0120582Y0056929D02*
X0123618Y0056929D01*
X0123618Y0058229D02*
X0120582Y0058229D01*
X0107618Y0058665D02*
X0104582Y0058665D01*
X0107618Y0058665D02*
X0107618Y0055629D01*
X0104582Y0055629D01*
X0104582Y0058665D01*
X0104582Y0056929D02*
X0107618Y0056929D01*
X0107618Y0058229D02*
X0104582Y0058229D01*
X0104582Y0065571D02*
X0107618Y0065571D01*
X0107618Y0062535D01*
X0104582Y0062535D01*
X0104582Y0065571D01*
X0104582Y0063835D02*
X0107618Y0063835D01*
X0107618Y0065135D02*
X0104582Y0065135D01*
D18*
X0234754Y0157100D03*
X0241446Y0157100D03*
X0218346Y0164200D03*
X0211654Y0164200D03*
X0205100Y0167446D03*
X0211754Y0171900D03*
X0218446Y0171900D03*
X0205100Y0160754D03*
X0141446Y0173100D03*
X0134754Y0173100D03*
X0283100Y0184754D03*
X0283100Y0191446D03*
X0293100Y0191446D03*
X0293100Y0184754D03*
D19*
X0160502Y0188100D03*
X0135698Y0188100D03*
D20*
G36*
X0149427Y0131856D02*
X0153244Y0135673D01*
X0155083Y0133834D01*
X0151266Y0130017D01*
X0149427Y0131856D01*
G37*
G36*
X0151654Y0129629D02*
X0155471Y0133446D01*
X0157310Y0131607D01*
X0153493Y0127790D01*
X0151654Y0129629D01*
G37*
G36*
X0153881Y0127402D02*
X0157698Y0131219D01*
X0159537Y0129380D01*
X0155720Y0125563D01*
X0153881Y0127402D01*
G37*
G36*
X0156109Y0125175D02*
X0159926Y0128992D01*
X0161765Y0127153D01*
X0157948Y0123336D01*
X0156109Y0125175D01*
G37*
G36*
X0158336Y0122948D02*
X0162153Y0126765D01*
X0163992Y0124926D01*
X0160175Y0121109D01*
X0158336Y0122948D01*
G37*
G36*
X0160563Y0120720D02*
X0164380Y0124537D01*
X0166219Y0122698D01*
X0162402Y0118881D01*
X0160563Y0120720D01*
G37*
G36*
X0162790Y0118493D02*
X0166607Y0122310D01*
X0168446Y0120471D01*
X0164629Y0116654D01*
X0162790Y0118493D01*
G37*
G36*
X0165017Y0116266D02*
X0168834Y0120083D01*
X0170673Y0118244D01*
X0166856Y0114427D01*
X0165017Y0116266D01*
G37*
G36*
X0136663Y0096820D02*
X0140480Y0100637D01*
X0142319Y0098798D01*
X0138502Y0094981D01*
X0136663Y0096820D01*
G37*
G36*
X0134435Y0099047D02*
X0138252Y0102864D01*
X0140091Y0101025D01*
X0136274Y0097208D01*
X0134435Y0099047D01*
G37*
G36*
X0132208Y0101274D02*
X0136025Y0105091D01*
X0137864Y0103252D01*
X0134047Y0099435D01*
X0132208Y0101274D01*
G37*
G36*
X0129981Y0103502D02*
X0133798Y0107319D01*
X0135637Y0105480D01*
X0131820Y0101663D01*
X0129981Y0103502D01*
G37*
G36*
X0127754Y0105729D02*
X0131571Y0109546D01*
X0133410Y0107707D01*
X0129593Y0103890D01*
X0127754Y0105729D01*
G37*
G36*
X0125527Y0107956D02*
X0129344Y0111773D01*
X0131183Y0109934D01*
X0127366Y0106117D01*
X0125527Y0107956D01*
G37*
G36*
X0138890Y0094593D02*
X0142707Y0098410D01*
X0144546Y0096571D01*
X0140729Y0092754D01*
X0138890Y0094593D01*
G37*
G36*
X0141117Y0092366D02*
X0144934Y0096183D01*
X0146773Y0094344D01*
X0142956Y0090527D01*
X0141117Y0092366D01*
G37*
D21*
G36*
X0149427Y0094344D02*
X0151266Y0096183D01*
X0155083Y0092366D01*
X0153244Y0090527D01*
X0149427Y0094344D01*
G37*
G36*
X0151654Y0096571D02*
X0153493Y0098410D01*
X0157310Y0094593D01*
X0155471Y0092754D01*
X0151654Y0096571D01*
G37*
G36*
X0153881Y0098798D02*
X0155720Y0100637D01*
X0159537Y0096820D01*
X0157698Y0094981D01*
X0153881Y0098798D01*
G37*
G36*
X0156109Y0101025D02*
X0157948Y0102864D01*
X0161765Y0099047D01*
X0159926Y0097208D01*
X0156109Y0101025D01*
G37*
G36*
X0158336Y0103252D02*
X0160175Y0105091D01*
X0163992Y0101274D01*
X0162153Y0099435D01*
X0158336Y0103252D01*
G37*
G36*
X0160563Y0105480D02*
X0162402Y0107319D01*
X0166219Y0103502D01*
X0164380Y0101663D01*
X0160563Y0105480D01*
G37*
G36*
X0162790Y0107707D02*
X0164629Y0109546D01*
X0168446Y0105729D01*
X0166607Y0103890D01*
X0162790Y0107707D01*
G37*
G36*
X0165017Y0109934D02*
X0166856Y0111773D01*
X0170673Y0107956D01*
X0168834Y0106117D01*
X0165017Y0109934D01*
G37*
G36*
X0136663Y0129380D02*
X0138502Y0131219D01*
X0142319Y0127402D01*
X0140480Y0125563D01*
X0136663Y0129380D01*
G37*
G36*
X0134435Y0127153D02*
X0136274Y0128992D01*
X0140091Y0125175D01*
X0138252Y0123336D01*
X0134435Y0127153D01*
G37*
G36*
X0132208Y0124926D02*
X0134047Y0126765D01*
X0137864Y0122948D01*
X0136025Y0121109D01*
X0132208Y0124926D01*
G37*
G36*
X0129981Y0122698D02*
X0131820Y0124537D01*
X0135637Y0120720D01*
X0133798Y0118881D01*
X0129981Y0122698D01*
G37*
G36*
X0127754Y0120471D02*
X0129593Y0122310D01*
X0133410Y0118493D01*
X0131571Y0116654D01*
X0127754Y0120471D01*
G37*
G36*
X0125527Y0118244D02*
X0127366Y0120083D01*
X0131183Y0116266D01*
X0129344Y0114427D01*
X0125527Y0118244D01*
G37*
G36*
X0138890Y0131607D02*
X0140729Y0133446D01*
X0144546Y0129629D01*
X0142707Y0127790D01*
X0138890Y0131607D01*
G37*
G36*
X0141117Y0133834D02*
X0142956Y0135673D01*
X0146773Y0131856D01*
X0144934Y0130017D01*
X0141117Y0133834D01*
G37*
D22*
X0229439Y0164261D03*
X0229439Y0166820D03*
X0229439Y0169380D03*
X0229439Y0171939D03*
X0246761Y0171939D03*
X0246761Y0169380D03*
X0246761Y0166820D03*
X0246761Y0164261D03*
D23*
X0168466Y0141784D02*
X0164416Y0137734D01*
X0161075Y0141075D02*
X0165125Y0145125D01*
X0161784Y0148466D02*
X0157734Y0144416D01*
D24*
G36*
X0160385Y0150100D02*
X0170114Y0140371D01*
X0165843Y0136100D01*
X0156114Y0145829D01*
X0160385Y0150100D01*
G37*
D25*
X0278100Y0185049D03*
X0278100Y0191151D03*
X0298100Y0191151D03*
X0298100Y0185049D03*
D26*
X0023757Y0071100D03*
D27*
X0052498Y0062124D03*
X0052498Y0080076D03*
D28*
X0023100Y0107013D03*
X0023100Y0120793D03*
D29*
X0052100Y0145700D03*
X0052100Y0163500D03*
D30*
X0027500Y0154600D03*
D31*
X0073301Y0133100D03*
X0085899Y0133100D03*
X0231801Y0183600D03*
X0244399Y0183600D03*
D32*
X0087049Y0154100D03*
X0068151Y0154100D03*
X0068151Y0083600D03*
X0087049Y0083600D03*
X0087049Y0057100D03*
X0068151Y0057100D03*
D33*
X0271163Y0017435D03*
X0279037Y0017435D03*
X0284163Y0210265D03*
X0292037Y0210265D03*
X0266037Y0210265D03*
X0258163Y0210265D03*
M02*
