  0
SECTION
  2
HEADER
  9
$ACADVER
  1
AC1012
  9
$DWGCODEPAGE
  3
undefined
  9
$INSBASE
 10
0.0
 20
0.0
 30
0.0
  9
$EXTMIN
 10
1.000000000000000E+20
 20
1.000000000000000E+20
 30
1.000000000000000E+20
  9
$EXTMAX
 10
-1.000000000000000E+20
 20
-1.000000000000000E+20
 30
-1.000000000000000E+20
  9
$LIMMIN
 10
0.0
 20
0.0
  9
$LIMMAX
 10
12.0
 20
9.0
  9
$ORTHOMODE
 70
     0
  9
$REGENMODE
 70
     1
  9
$FILLMODE
 70
     1
  9
$QTEXTMODE
 70
     0
  9
$MIRRTEXT
 70
     1
  9
$DRAGMODE
 70
     2
  9
$LTSCALE
 40
1.0
  9
$OSMODE
 70
    37
  9
$ATTMODE
 70
     1
  9
$TEXTSIZE
 40
0.2
  9
$TRACEWID
 40
0.05
  9
$TEXTSTYLE
  7
STANDARD
  9
$CLAYER
  8
0
  9
$CELTYPE
  6
BYLAYER
  9
$CECOLOR
 62
   256
  9
$CELTSCALE
 40
1.0
  9
$DELOBJ
 70
     1
  9
$DISPSILH
 70
     0
  9
$DIMSCALE
 40
1.0
  9
$DIMASZ
 40
0.18
  9
$DIMEXO
 40
0.0625
  9
$DIMDLI
 40
0.38
  9
$DIMRND
 40
0.0
  9
$DIMDLE
 40
0.0
  9
$DIMEXE
 40
0.18
  9
$DIMTP
 40
0.0
  9
$DIMTM
 40
0.0
  9
$DIMTXT
 40
0.18
  9
$DIMCEN
 40
0.09
  9
$DIMTSZ
 40
0.0
  9
$DIMTOL
 70
     0
  9
$DIMLIM
 70
     0
  9
$DIMTIH
 70
     1
  9
$DIMTOH
 70
     1
  9
$DIMSE1
 70
     0
  9
$DIMSE2
 70
     0
  9
$DIMTAD
 70
     0
  9
$DIMZIN
 70
     0
  9
$DIMBLK
  1

  9
$DIMASO
 70
     1
  9
$DIMSHO
 70
     1
  9
$DIMPOST
  1

  9
$DIMAPOST
  1

  9
$DIMALT
 70
     0
  9
$DIMALTD
 70
     2
  9
$DIMALTF
 40
25.4
  9
$DIMLFAC
 40
1.0
  9
$DIMTOFL
 70
     0
  9
$DIMTVP
 40
0.0
  9
$DIMTIX
 70
     0
  9
$DIMSOXD
 70
     0
  9
$DIMSAH
 70
     0
  9
$DIMBLK1
  1

  9
$DIMBLK2
  1

  9
$DIMSTYLE
  2
STANDARD
  9
$DIMCLRD
 70
     0
  9
$DIMCLRE
 70
     0
  9
$DIMCLRT
 70
     0
  9
$DIMTFAC
 40
1.0
  9
$DIMGAP
 40
0.09
  9
$DIMJUST
 70
     0
  9
$DIMSD1
 70
     0
  9
$DIMSD2
 70
     0
  9
$DIMTOLJ
 70
     1
  9
$DIMTZIN
 70
     0
  9
$DIMALTZ
 70
     0
  9
$DIMALTTZ
 70
     0
  9
$DIMFIT
 70
     3
  9
$DIMUPT
 70
     0
  9
$DIMUNIT
 70
     2
  9
$DIMDEC
 70
     4
  9
$DIMTDEC
 70
     4
  9
$DIMALTU
 70
     2
  9
$DIMALTTD
 70
     2
  9
$DIMTXSTY
  7
STANDARD
  9
$DIMAUNIT
 70
     0
  9
$LUNITS
 70
     2
  9
$LUPREC
 70
     4
  9
$SKETCHINC
 40
0.1
  9
$FILLETRAD
 40
0.5
  9
$AUNITS
 70
     0
  9
$AUPREC
 70
     0
  9
$MENU
  1
.
  9
$ELEVATION
 40
0.0
  9
$PELEVATION
 40
0.0
  9
$THICKNESS
 40
0.0
  9
$LIMCHECK
 70
     0
  9
$CHAMFERA
 40
0.5
  9
$CHAMFERB
 40
0.5
  9
$CHAMFERC
 40
1.0
  9
$CHAMFERD
 40
0.0
  9
$SKPOLY
 70
     0
  9
$TDCREATE
 40
2457315.470578692
  9
$TDUPDATE
 40
2457315.470578692
  9
$TDINDWG
 40
0.0000000116
  9
$TDUSRTIMER
 40
0.0000000116
  9
$USRTIMER
 70
     1
  9
$ANGBASE
 50
0.0
  9
$ANGDIR
 70
     0
  9
$PDMODE
 70
     0
  9
$PDSIZE
 40
0.0
  9
$PLINEWID
 40
0.0
  9
$COORDS
 70
     1
  9
$SPLFRAME
 70
     0
  9
$SPLINETYPE
 70
     6
  9
$SPLINESEGS
 70
     8
  9
$ATTDIA
 70
     0
  9
$ATTREQ
 70
     1
  9
$HANDLING
 70
     1
  9
$HANDSEED
  5
69
  9
$SURFTAB1
 70
     6
  9
$SURFTAB2
 70
     6
  9
$SURFTYPE
 70
     6
  9
$SURFU
 70
     6
  9
$SURFV
 70
     6
  9
$UCSNAME
  2

  9
$UCSORG
 10
0.0
 20
0.0
 30
0.0
  9
$UCSXDIR
 10
1.0
 20
0.0
 30
0.0
  9
$UCSYDIR
 10
0.0
 20
1.0
 30
0.0
  9
$PUCSNAME
  2

  9
$PUCSORG
 10
0.0
 20
0.0
 30
0.0
  9
$PUCSXDIR
 10
1.0
 20
0.0
 30
0.0
  9
$PUCSYDIR
 10
0.0
 20
1.0
 30
0.0
  9
$USERI1
 70
     0
  9
$USERI2
 70
     0
  9
$USERI3
 70
     0
  9
$USERI4
 70
     0
  9
$USERI5
 70
     0
  9
$USERR1
 40
0.0
  9
$USERR2
 40
0.0
  9
$USERR3
 40
0.0
  9
$USERR4
 40
0.0
  9
$USERR5
 40
0.0
  9
$WORLDVIEW
 70
     1
  9
$SHADEDGE
 70
     3
  9
$SHADEDIF
 70
    70
  9
$TILEMODE
 70
     1
  9
$MAXACTVP
 70
    64
  9
$PINSBASE
 10
0.0
 20
0.0
 30
0.0
  9
$PLIMCHECK
 70
     0
  9
$PEXTMIN
 10
1.000000000000000E+20
 20
1.000000000000000E+20
 30
1.000000000000000E+20
  9
$PEXTMAX
 10
-1.000000000000000E+20
 20
-1.000000000000000E+20
 30
-1.000000000000000E+20
  9
$PLIMMIN
 10
0.0
 20
0.0
  9
$PLIMMAX
 10
12.0
 20
9.0
  9
$UNITMODE
 70
     0
  9
$VISRETAIN
 70
     1
  9
$PLINEGEN
 70
     0
  9
$PSLTSCALE
 70
     1
  9
$TREEDEPTH
 70
  3020
  9
$PICKSTYLE
 70
     1
  9
$CMLSTYLE
  2
STANDARD
  9
$CMLJUST
 70
     0
  9
$CMLSCALE
 40
1.0
  9
$SAVEIMAGES
 70
     1
  0
ENDSEC
  0
SECTION
  2
CLASSES
  0
CLASS
  1
ACDBDICTIONARYWDFLT
  2
AcDbDictionaryWithDefault
  3
ObjectDBX Classes
 90
    32768
280
     0
281
     0
  0
CLASS
  1
VISUALSTYLE
  2
AcDbVisualStyle
  3
ObjectDBX Classes
 90
     4095
280
     0
281
     0
  0
CLASS
  1
MATERIAL
  2
AcDbMaterial
  3
ObjectDBX Classes
 90
     1153
280
     0
281
     0
  0
CLASS
  1
SUN
  2
AcDbSun
  3
SCENEOE
 90
     1024
280
     0
281
     0
  0
CLASS
  1
DICTIONARYVAR
  2
AcDbDictionaryVar
  3
ObjectDBX Classes
 90
        0
280
     0
281
     0
  0
CLASS
  1
XRECORD
  2
AcDbXrecord
  3
AutoCAD 2000
 90
    32768
280
     0
281
     0
  0
CLASS
  1
LWPOLYLINE
  2
AcDbPolyline
  3
AutoCAD 2000
 90
    32768
280
     0
281
     1
  0
CLASS
  1
HATCH
  2
AcDbHatch
  3
AutoCAD 2000
 90
    32768
280
     0
281
     1
  0
CLASS
  1
ACDBPLACEHOLDER
  2
AcDbPlaceHolder
  3
ObjectDBX Classes
 90
        0
280
     0
281
     0
  0
CLASS
  1
LAYOUT
  2
AcDbLayout
  3
ObjectDBX Classes
 90
        0
280
     0
281
     0
  0
ENDSEC
  0
SECTION
  2
TABLES
  0
TABLE
  2
VPORT
  5
8
330
0
100
AcDbSymbolTable
 70
     1
  0
VPORT
  5
29
330
8
100
AcDbSymbolTableRecord
100
AcDbViewportTableRecord
  2
*ACTIVE
 70
     0
 10
0.0
 20
0.0
 11
1.0
 21
1.0
 12
0.0
 22
0.0
 13
0.0
 23
0.0
 14
0.5
 24
0.5
 15
0.5
 25
0.5
 16
0.0
 26
0.0
 36
1.0
 17
148.5000416295416
 27
-105.0007777515277
 37
0.0
 40
210.0015555030554
 41
1.414275634995294
 42
50.0
 43
0.0
 44
0.0
 50
0.0
 51
0.0
 71
     0
 72
   100
 73
     1
 74
     3
 75
     0
 76
     0
 77
     0
 78
     0
  0
ENDTAB
  0
TABLE
  2
LTYPE
  5
5
330
0
100
AcDbSymbolTable
 70
     1
  0
LTYPE
  5
14
330
5
100
AcDbSymbolTableRecord
100
AcDbLinetypeTableRecord
  2
BYBLOCK
 70
     0
  3

 72
    65
 73
     0
 40
0.0
  0
LTYPE
  5
15
330
5
100
AcDbSymbolTableRecord
100
AcDbLinetypeTableRecord
  2
BYLAYER
 70
     0
  3

 72
    65
 73
     0
 40
0.0
  0
LTYPE
  5
16
330
5
100
AcDbSymbolTableRecord
100
AcDbLinetypeTableRecord
  2
CONTINUOUS
 70
     0
  3
Solid line
 72
    65
 73
     0
 40
0.0
  0
ENDTAB
  0
TABLE
  2
LAYER
  5
2
330
0
100
AcDbSymbolTable
 70
     2
  0
LAYER
  5
10
330
2
100
AcDbSymbolTableRecord
100
AcDbLayerTableRecord
  2
0
 70
     0
 62
     7
  6
CONTINUOUS
  0
LAYER
  5
40
330
2
100
AcDbSymbolTableRecord
100
AcDbLayerTableRecord
  2
LIVELLO_1
 70
     0
 62
     7
  6
CONTINUOUS
  0
ENDTAB
  0
TABLE
  2
STYLE
  5
3
330
0
100
AcDbSymbolTable
 70
     1
  0
STYLE
  5
11
330
3
100
AcDbSymbolTableRecord
100
AcDbTextStyleTableRecord
  2
STANDARD
 70
     0
 40
0.0
 41
1.0
 50
0.0
 71
     0
 42
0.2
  3
txt
  4

  0
ENDTAB
  0
TABLE
  2
VIEW
  5
6
330
0
100
AcDbSymbolTable
 70
     0
  0
ENDTAB
  0
TABLE
  2
UCS
  5
7
330
0
100
AcDbSymbolTable
 70
     0
  0
ENDTAB
  0
TABLE
  2
APPID
  5
9
330
0
100
AcDbSymbolTable
 70
     1
  0
APPID
  5
12
330
9
100
AcDbSymbolTableRecord
100
AcDbRegAppTableRecord
  2
ACAD
 70
     0
  0
ENDTAB
  0
TABLE
  2
DIMSTYLE
  5
A
330
0
100
AcDbSymbolTable
 70
     1
  0
DIMSTYLE
105
27
330
A
100
AcDbSymbolTableRecord
100
AcDbDimStyleTableRecord
  2
STANDARD
 70
     0
  3

  4

  5

  6

  7

 40
1.0
 41
0.18
 42
0.0625
 43
0.38
 44
0.18
 45
0.0
 46
0.0
 47
0.0
 48
0.0
140
0.18
141
0.09
142
0.0
143
25.4
144
1.0
145
0.0
146
1.0
147
0.09
 71
     0
 72
     0
 73
     1
 74
     1
 75
     0
 76
     0
 77
     0
 78
     0
170
     0
171
     2
172
     0
173
     0
174
     0
175
     0
176
     0
177
     0
178
     0
270
     2
271
     4
272
     4
273
     2
274
     2
340
11
275
     0
280
     0
281
     0
282
     0
283
     1
284
     0
285
     0
286
     0
287
     3
288
     0
  0
ENDTAB
  0
TABLE
  2
BLOCK_RECORD
  5
1
330
0
100
AcDbSymbolTable
 70
     7
  0
BLOCK_RECORD
  5
1F
330
1
100
AcDbSymbolTableRecord
100
AcDbBlockTableRecord
  2
*MODEL_SPACE
  0
BLOCK_RECORD
  5
1B
330
1
100
AcDbSymbolTableRecord
100
AcDbBlockTableRecord
  2
*PAPER_SPACE
  0
BLOCK_RECORD
  5
41
330
1
100
AcDbSymbolTableRecord
100
AcDbBlockTableRecord
  2
BLOCK_2
  0
BLOCK_RECORD
  5
45
330
1
100
AcDbSymbolTableRecord
100
AcDbBlockTableRecord
  2
BLOCK_3
  0
BLOCK_RECORD
  5
4A
330
1
100
AcDbSymbolTableRecord
100
AcDbBlockTableRecord
  2
BLOCK_4
  0
BLOCK_RECORD
  5
4F
330
1
100
AcDbSymbolTableRecord
100
AcDbBlockTableRecord
  2
BLOCK_5
  0
BLOCK_RECORD
  5
53
330
1
100
AcDbSymbolTableRecord
100
AcDbBlockTableRecord
  2
BLOCK_6
  0
BLOCK_RECORD
  5
58
330
1
100
AcDbSymbolTableRecord
100
AcDbBlockTableRecord
  2
BLOCK_7
  0
ENDTAB
  0
ENDSEC
  0
SECTION
  2
BLOCKS
  0
BLOCK
  5
20
330
1F
100
AcDbEntity
  8
0
100
AcDbBlockBegin
  2
*MODEL_SPACE
 70
     0
 10
0.0
 20
0.0
 30
0.0
  3
*MODEL_SPACE
  1

  0
ENDBLK
  5
21
330
1F
100
AcDbEntity
  8
0
100
AcDbBlockEnd
  0
BLOCK
  5
1C
330
1B
100
AcDbEntity
 67
     1
  8
0
100
AcDbBlockBegin
  2
*PAPER_SPACE
 70
     0
 10
0.0
 20
0.0
 30
0.0
  3
*PAPER_SPACE
  1

  0
ENDBLK
  5
1D
330
1B
100
AcDbEntity
 67
     1
  8
0
100
AcDbBlockEnd
  0
BLOCK
  5
43
330
41
100
AcDbEntity
  8
0
100
AcDbBlockBegin
  2
BLOCK_2
 70
     0
 10
0.0
 20
0.0
 30
0.0
  3
BLOCK_2
  1

  0
INSERT
  5
46
330
41
100
AcDbEntity
  8
LIVELLO_1
100
AcDbBlockReference
  2
BLOCK_3
 10
0.0
 20
0.0
 30
0.0
  0
INSERT
  5
4B
330
41
100
AcDbEntity
  8
LIVELLO_1
100
AcDbBlockReference
  2
BLOCK_4
 10
0.0
 20
0.0
 30
0.0
  0
ENDBLK
  5
44
330
41
100
AcDbEntity
  8
0
100
AcDbBlockEnd
  0
BLOCK
  5
47
330
45
100
AcDbEntity
  8
0
100
AcDbBlockBegin
  2
BLOCK_3
 70
     0
 10
0.0
 20
0.0
 30
0.0
  3
BLOCK_3
  1

  0
SPLINE
  5
49
330
45
100
AcDbEntity
  8
LIVELLO_1
 62
     7
100
AcDbSpline
210
0.0
220
0.0
230
1.0
 70
    11
 71
     3
 72
   125
 73
   121
 74
     0
 42
0.0000000001
 43
0.0000000001
 12
1.0
 22
0.0
 32
0.0
 13
1.0
 23
0.0
 33
0.0
 40
0.0
 40
0.0
 40
0.0
 40
0.0
 40
1.0
 40
1.0
 40
1.0
 40
2.0
 40
2.0
 40
2.0
 40
3.0
 40
3.0
 40
3.0
 40
4.0
 40
4.0
 40
4.0
 40
5.0
 40
5.0
 40
5.0
 40
6.0
 40
6.0
 40
6.0
 40
7.0
 40
7.0
 40
7.0
 40
8.0
 40
8.0
 40
8.0
 40
9.0
 40
9.0
 40
9.0
 40
10.0
 40
10.0
 40
10.0
 40
11.0
 40
11.0
 40
11.0
 40
12.0
 40
12.0
 40
12.0
 40
13.0
 40
13.0
 40
13.0
 40
14.0
 40
14.0
 40
14.0
 40
15.0
 40
15.0
 40
15.0
 40
16.0
 40
16.0
 40
16.0
 40
17.0
 40
17.0
 40
17.0
 40
18.0
 40
18.0
 40
18.0
 40
19.0
 40
19.0
 40
19.0
 40
20.0
 40
20.0
 40
20.0
 40
21.0
 40
21.0
 40
21.0
 40
22.0
 40
22.0
 40
22.0
 40
23.0
 40
23.0
 40
23.0
 40
24.0
 40
24.0
 40
24.0
 40
25.0
 40
25.0
 40
25.0
 40
26.0
 40
26.0
 40
26.0
 40
27.0
 40
27.0
 40
27.0
 40
28.0
 40
28.0
 40
28.0
 40
29.0
 40
29.0
 40
29.0
 40
30.0
 40
30.0
 40
30.0
 40
31.0
 40
31.0
 40
31.0
 40
32.0
 40
32.0
 40
32.0
 40
33.0
 40
33.0
 40
33.0
 40
34.0
 40
34.0
 40
34.0
 40
35.0
 40
35.0
 40
35.0
 40
36.0
 40
36.0
 40
36.0
 40
37.0
 40
37.0
 40
37.0
 40
38.0
 40
38.0
 40
38.0
 40
39.0
 40
39.0
 40
39.0
 40
40.0
 40
40.0
 40
40.0
 40
40.0
 10
114.0442371767921
 20
-85.59977300999061
 30
0.0
 10
114.0442371767921
 20
-85.5134785178293
 30
0.0
 10
114.052981615272
 20
-85.42922639870872
 30
0.0
 10
114.0696327340518
 20
-85.34785441080808
 30
0.0
 10
114.0862838528315
 20
-85.26648242290744
 30
0.0
 10
114.1108416519113
 20
-85.18799056622709
 30
0.0
 10
114.1424683731108
 20
-85.11321659894685
 30
0.0
 10
114.1740950943105
 20
-85.03844263166661
 30
0.0
 10
114.2127907376302
 20
-84.96738655378651
 30
0.0
 10
114.2577175448899
 20
-84.90088612348673
 30
0.0
 10
114.3026443521496
 20
-84.83438569318662
 30
0.0
 10
114.353802323349
 20
-84.77244091046715
 30
0.0
 10
114.4103537003089
 20
-84.71588953350722
 30
0.0
 10
114.4669050772688
 20
-84.6593381565473
 30
0.0
 10
114.5288498599883
 20
-84.60818018534788
 30
0.0
 10
114.5953502902884
 20
-84.56325337808818
 30
0.0
 10
114.6618507205882
 20
-84.51832657082848
 30
0.0
 10
114.7329067984683
 20
-84.47963092750882
 30
0.0
 10
114.8076807657485
 20
-84.4480042063091
 30
0.0
 10
114.8824547330288
 20
-84.41637748510966
 30
0.0
 10
114.9609465897091
 20
-84.39181968602983
 30
0.0
 10
115.0423185776098
 20
-84.3751685672501
 30
0.0
 10
115.1236905655104
 20
-84.35851744847037
 30
0.0
 10
115.207942684631
 20
-84.3497730099904
 30
0.0
 10
115.2942371767923
 20
-84.3497730099904
 30
0.0
 10
115.3805316689536
 20
-84.3497730099904
 30
0.0
 10
115.4647837880742
 20
-84.35851744847037
 30
0.0
 10
115.5461557759748
 20
-84.3751685672501
 30
0.0
 10
115.6275277638754
 20
-84.39181968602983
 30
0.0
 10
115.7060196205558
 20
-84.41637748510966
 30
0.0
 10
115.780793587836
 20
-84.4480042063091
 30
0.0
 10
115.855567555116
 20
-84.47963092750882
 30
0.0
 10
115.9266236329961
 20
-84.51832657082848
 30
0.0
 10
115.9931240632959
 20
-84.56325337808818
 30
0.0
 10
116.0596244935956
 20
-84.60818018534788
 30
0.0
 10
116.1215692763157
 20
-84.6593381565473
 30
0.0
 10
116.1781206532753
 20
-84.71588953350722
 30
0.0
 10
116.234672030235
 20
-84.77244091046715
 30
0.0
 10
116.2858300014347
 20
-84.83438569318662
 30
0.0
 10
116.3307568086944
 20
-84.90088612348673
 30
0.0
 10
116.3756836159541
 20
-84.96738655378651
 30
0.0
 10
116.4143792592737
 20
-85.03844263166661
 30
0.0
 10
116.4460059804735
 20
-85.11321659894685
 30
0.0
 10
116.4776327016732
 20
-85.18799056622709
 30
0.0
 10
116.5021905007527
 20
-85.26648242290744
 30
0.0
 10
116.5188416195325
 20
-85.34785441080808
 30
0.0
 10
116.5354927383122
 20
-85.42922639870872
 30
0.0
 10
116.5442371767922
 20
-85.5134785178293
 30
0.0
 10
116.5442371767922
 20
-85.59977300999061
 30
0.0
 10
116.5442371767922
 20
-85.68606750215191
 30
0.0
 10
116.5354927383122
 20
-85.7703196212725
 30
0.0
 10
116.5188416195325
 20
-85.85169160917313
 30
0.0
 10
116.5021905007527
 20
-85.93306359707377
 30
0.0
 10
116.4776327016732
 20
-86.01155545375414
 30
0.0
 10
116.4460059804735
 20
-86.08632942103438
 30
0.0
 10
116.4143792592737
 20
-86.16110338831429
 30
0.0
 10
116.3756836159541
 20
-86.23215946619439
 30
0.0
 10
116.3307568086944
 20
-86.29865989649417
 30
0.0
 10
116.2858300014347
 20
-86.36516032679395
 30
0.0
 10
116.234672030235
 20
-86.42710510951407
 30
0.0
 10
116.1781206532753
 20
-86.48365648647368
 30
0.0
 10
116.1215692763157
 20
-86.54020786343328
 30
0.0
 10
116.0596244935956
 20
-86.59136583463302
 30
0.0
 10
115.9931240632959
 20
-86.63629264189272
 30
0.0
 10
115.9266236329961
 20
-86.68121944915242
 30
0.0
 10
115.855567555116
 20
-86.71991509247208
 30
0.0
 10
115.780793587836
 20
-86.7515418136718
 30
0.0
 10
115.7060196205558
 20
-86.78316853487155
 30
0.0
 10
115.6275277638754
 20
-86.80772633395107
 30
0.0
 10
115.5461557759748
 20
-86.8243774527308
 30
0.0
 10
115.4647837880742
 20
-86.84102857151053
 30
0.0
 10
115.3805316689536
 20
-86.8497730099905
 30
0.0
 10
115.2942371767923
 20
-86.8497730099905
 30
0.0
 10
115.207942684631
 20
-86.8497730099905
 30
0.0
 10
115.1236905655104
 20
-86.84102857151053
 30
0.0
 10
115.0423185776098
 20
-86.8243774527308
 30
0.0
 10
114.9609465897091
 20
-86.80772633395107
 30
0.0
 10
114.8824547330288
 20
-86.78316853487155
 30
0.0
 10
114.8076807657485
 20
-86.7515418136718
 30
0.0
 10
114.7329067984683
 20
-86.71991509247208
 30
0.0
 10
114.6618507205882
 20
-86.68121944915242
 30
0.0
 10
114.5953502902884
 20
-86.63629264189272
 30
0.0
 10
114.5288498599883
 20
-86.59136583463302
 30
0.0
 10
114.4669050772688
 20
-86.54020786343328
 30
0.0
 10
114.4103537003089
 20
-86.48365648647368
 30
0.0
 10
114.353802323349
 20
-86.42710510951407
 30
0.0
 10
114.3026443521496
 20
-86.36516032679395
 30
0.0
 10
114.2577175448899
 20
-86.29865989649417
 30
0.0
 10
114.2127907376302
 20
-86.23215946619439
 30
0.0
 10
114.1740950943105
 20
-86.16110338831429
 30
0.0
 10
114.1424683731108
 20
-86.08632942103438
 30
0.0
 10
114.1108416519113
 20
-86.01155545375414
 30
0.0
 10
114.0862838528315
 20
-85.93306359707377
 30
0.0
 10
114.0696327340518
 20
-85.85169160917313
 30
0.0
 10
114.052981615272
 20
-85.7703196212725
 30
0.0
 10
114.0442371767921
 20
-85.68606750215191
 30
0.0
 10
114.0442371767921
 20
-85.59977300999061
 30
0.0
 10
114.0442371767921
 20
-85.59977300999061
 30
0.0
 10
114.0442371767921
 20
-85.59977300999061
 30
0.0
 10
114.0442371767921
 20
-85.59977300999061
 30
0.0
 10
114.0442371767921
 20
-85.59977300999061
 30
0.0
 10
114.0442371767921
 20
-85.59977300999061
 30
0.0
 10
114.0442371767921
 20
-85.59977300999061
 30
0.0
 10
114.0442371767921
 20
-85.59977300999061
 30
0.0
 10
114.0442371767921
 20
-85.59977300999061
 30
0.0
 10
114.0442371767921
 20
-85.59977300999061
 30
0.0
 10
114.0442371767921
 20
-85.59977300999061
 30
0.0
 10
114.0442371767921
 20
-85.59977300999061
 30
0.0
 10
114.0442371767921
 20
-85.59977300999061
 30
0.0
 10
114.0442371767921
 20
-85.59977300999061
 30
0.0
 10
114.0442371767921
 20
-85.59977300999061
 30
0.0
 10
114.0442371767921
 20
-85.59977300999061
 30
0.0
 10
114.0442371767921
 20
-85.59977300999061
 30
0.0
 10
114.0442371767921
 20
-85.59977300999061
 30
0.0
 10
114.0442371767921
 20
-85.59977300999061
 30
0.0
 10
114.0442371767921
 20
-85.59977300999061
 30
0.0
 10
114.0442371767921
 20
-85.59977300999061
 30
0.0
 10
114.0442371767921
 20
-85.59977300999061
 30
0.0
 10
114.0442371767921
 20
-85.59977300999061
 30
0.0
 10
114.0442371767921
 20
-85.59977300999061
 30
0.0
 10
114.0442371767921
 20
-85.59977300999061
 30
0.0
  0
ENDBLK
  5
48
330
45
100
AcDbEntity
  8
0
100
AcDbBlockEnd
  0
BLOCK
  5
4C
330
4A
100
AcDbEntity
  8
0
100
AcDbBlockBegin
  2
BLOCK_4
 70
     0
 10
0.0
 20
0.0
 30
0.0
  3
BLOCK_4
  1

  0
SPLINE
  5
4E
330
4A
100
AcDbEntity
  8
LIVELLO_1
 62
     7
100
AcDbSpline
210
0.0
220
0.0
230
1.0
 70
    11
 71
     3
 72
   125
 73
   121
 74
     0
 42
0.0000000001
 43
0.0000000001
 12
1.0
 22
0.0
 32
0.0
 13
1.0
 23
0.0
 33
0.0
 40
0.0
 40
0.0
 40
0.0
 40
0.0
 40
1.0
 40
1.0
 40
1.0
 40
2.0
 40
2.0
 40
2.0
 40
3.0
 40
3.0
 40
3.0
 40
4.0
 40
4.0
 40
4.0
 40
5.0
 40
5.0
 40
5.0
 40
6.0
 40
6.0
 40
6.0
 40
7.0
 40
7.0
 40
7.0
 40
8.0
 40
8.0
 40
8.0
 40
9.0
 40
9.0
 40
9.0
 40
10.0
 40
10.0
 40
10.0
 40
11.0
 40
11.0
 40
11.0
 40
12.0
 40
12.0
 40
12.0
 40
13.0
 40
13.0
 40
13.0
 40
14.0
 40
14.0
 40
14.0
 40
15.0
 40
15.0
 40
15.0
 40
16.0
 40
16.0
 40
16.0
 40
17.0
 40
17.0
 40
17.0
 40
18.0
 40
18.0
 40
18.0
 40
19.0
 40
19.0
 40
19.0
 40
20.0
 40
20.0
 40
20.0
 40
21.0
 40
21.0
 40
21.0
 40
22.0
 40
22.0
 40
22.0
 40
23.0
 40
23.0
 40
23.0
 40
24.0
 40
24.0
 40
24.0
 40
25.0
 40
25.0
 40
25.0
 40
26.0
 40
26.0
 40
26.0
 40
27.0
 40
27.0
 40
27.0
 40
28.0
 40
28.0
 40
28.0
 40
29.0
 40
29.0
 40
29.0
 40
30.0
 40
30.0
 40
30.0
 40
31.0
 40
31.0
 40
31.0
 40
32.0
 40
32.0
 40
32.0
 40
33.0
 40
33.0
 40
33.0
 40
34.0
 40
34.0
 40
34.0
 40
35.0
 40
35.0
 40
35.0
 40
36.0
 40
36.0
 40
36.0
 40
37.0
 40
37.0
 40
37.0
 40
38.0
 40
38.0
 40
38.0
 40
39.0
 40
39.0
 40
39.0
 40
40.0
 40
40.0
 40
40.0
 40
40.0
 10
181.0442371767922
 20
-85.59977300999061
 30
0.0
 10
181.0442371767922
 20
-85.5134785178293
 30
0.0
 10
181.0529816152718
 20
-85.42922639870872
 30
0.0
 10
181.0696327340519
 20
-85.34785441080808
 30
0.0
 10
181.0862838528313
 20
-85.26648242290744
 30
0.0
 10
181.1108416519111
 20
-85.18799056622709
 30
0.0
 10
181.1424683731109
 20
-85.11321659894685
 30
0.0
 10
181.1740950943106
 20
-85.03844263166661
 30
0.0
 10
181.2127907376303
 20
-84.96738655378651
 30
0.0
 10
181.25771754489
 20
-84.90088612348673
 30
0.0
 10
181.3026443521497
 20
-84.83438569318662
 30
0.0
 10
181.3538023233494
 20
-84.77244091046715
 30
0.0
 10
181.4103537003093
 20
-84.71588953350722
 30
0.0
 10
181.4669050772686
 20
-84.6593381565473
 30
0.0
 10
181.5288498599887
 20
-84.60818018534788
 30
0.0
 10
181.5953502902885
 20
-84.56325337808818
 30
0.0
 10
181.6618507205883
 20
-84.51832657082848
 30
0.0
 10
181.7329067984684
 20
-84.47963092750882
 30
0.0
 10
181.8076807657483
 20
-84.4480042063091
 30
0.0
 10
181.8824547330289
 20
-84.41637748510966
 30
0.0
 10
181.9609465897092
 20
-84.39181968602983
 30
0.0
 10
182.0423185776096
 20
-84.3751685672501
 30
0.0
 10
182.1236905655099
 20
-84.35851744847037
 30
0.0
 10
182.2079426846308
 20
-84.3497730099904
 30
0.0
 10
182.2942371767918
 20
-84.3497730099904
 30
0.0
 10
182.3805316689528
 20
-84.3497730099904
 30
0.0
 10
182.4647837880736
 20
-84.35851744847037
 30
0.0
 10
182.5461557759746
 20
-84.3751685672501
 30
0.0
 10
182.6275277638749
 20
-84.39181968602983
 30
0.0
 10
182.7060196205559
 20
-84.41637748510966
 30
0.0
 10
182.7807935878359
 20
-84.4480042063091
 30
0.0
 10
182.8555675551158
 20
-84.47963092750882
 30
0.0
 10
182.9266236329959
 20
-84.51832657082848
 30
0.0
 10
182.9931240632957
 20
-84.56325337808818
 30
0.0
 10
183.0596244935961
 20
-84.60818018534788
 30
0.0
 10
183.1215692763155
 20
-84.6593381565473
 30
0.0
 10
183.1781206532755
 20
-84.71588953350722
 30
0.0
 10
183.2346720302347
 20
-84.77244091046715
 30
0.0
 10
183.2858300014345
 20
-84.83438569318662
 30
0.0
 10
183.3307568086942
 20
-84.90088612348673
 30
0.0
 10
183.3756836159539
 20
-84.96738655378651
 30
0.0
 10
183.4143792592735
 20
-85.03844263166661
 30
0.0
 10
183.4460059804733
 20
-85.11321659894685
 30
0.0
 10
183.477632701673
 20
-85.18799056622709
 30
0.0
 10
183.5021905007522
 20
-85.26648242290744
 30
0.0
 10
183.5188416195323
 20
-85.34785441080808
 30
0.0
 10
183.5354927383117
 20
-85.42922639870872
 30
0.0
 10
183.544237176792
 20
-85.5134785178293
 30
0.0
 10
183.544237176792
 20
-85.59977300999061
 30
0.0
 10
183.544237176792
 20
-85.68606750215191
 30
0.0
 10
183.5354927383117
 20
-85.7703196212725
 30
0.0
 10
183.5188416195323
 20
-85.85169160917313
 30
0.0
 10
183.5021905007522
 20
-85.93306359707377
 30
0.0
 10
183.477632701673
 20
-86.01155545375414
 30
0.0
 10
183.4460059804733
 20
-86.08632942103438
 30
0.0
 10
183.4143792592735
 20
-86.16110338831429
 30
0.0
 10
183.3756836159539
 20
-86.23215946619439
 30
0.0
 10
183.3307568086942
 20
-86.29865989649417
 30
0.0
 10
183.2858300014345
 20
-86.36516032679395
 30
0.0
 10
183.2346720302347
 20
-86.42710510951407
 30
0.0
 10
183.1781206532755
 20
-86.48365648647368
 30
0.0
 10
183.1215692763155
 20
-86.54020786343328
 30
0.0
 10
183.0596244935961
 20
-86.59136583463302
 30
0.0
 10
182.9931240632957
 20
-86.63629264189272
 30
0.0
 10
182.9266236329959
 20
-86.68121944915242
 30
0.0
 10
182.8555675551158
 20
-86.71991509247208
 30
0.0
 10
182.7807935878359
 20
-86.7515418136718
 30
0.0
 10
182.7060196205559
 20
-86.78316853487155
 30
0.0
 10
182.6275277638749
 20
-86.80772633395107
 30
0.0
 10
182.5461557759746
 20
-86.8243774527308
 30
0.0
 10
182.4647837880736
 20
-86.84102857151053
 30
0.0
 10
182.3805316689528
 20
-86.8497730099905
 30
0.0
 10
182.2942371767918
 20
-86.8497730099905
 30
0.0
 10
182.2079426846308
 20
-86.8497730099905
 30
0.0
 10
182.1236905655099
 20
-86.84102857151053
 30
0.0
 10
182.0423185776096
 20
-86.8243774527308
 30
0.0
 10
181.9609465897092
 20
-86.80772633395107
 30
0.0
 10
181.8824547330289
 20
-86.78316853487155
 30
0.0
 10
181.8076807657483
 20
-86.7515418136718
 30
0.0
 10
181.7329067984684
 20
-86.71991509247208
 30
0.0
 10
181.6618507205883
 20
-86.68121944915242
 30
0.0
 10
181.5953502902885
 20
-86.63629264189272
 30
0.0
 10
181.5288498599887
 20
-86.59136583463302
 30
0.0
 10
181.4669050772686
 20
-86.54020786343328
 30
0.0
 10
181.4103537003093
 20
-86.48365648647368
 30
0.0
 10
181.3538023233494
 20
-86.42710510951407
 30
0.0
 10
181.3026443521497
 20
-86.36516032679395
 30
0.0
 10
181.25771754489
 20
-86.29865989649417
 30
0.0
 10
181.2127907376303
 20
-86.23215946619439
 30
0.0
 10
181.1740950943106
 20
-86.16110338831429
 30
0.0
 10
181.1424683731109
 20
-86.08632942103438
 30
0.0
 10
181.1108416519111
 20
-86.01155545375414
 30
0.0
 10
181.0862838528313
 20
-85.93306359707377
 30
0.0
 10
181.0696327340519
 20
-85.85169160917313
 30
0.0
 10
181.0529816152718
 20
-85.7703196212725
 30
0.0
 10
181.0442371767922
 20
-85.68606750215191
 30
0.0
 10
181.0442371767922
 20
-85.59977300999061
 30
0.0
 10
181.0442371767922
 20
-85.59977300999061
 30
0.0
 10
181.0442371767922
 20
-85.59977300999061
 30
0.0
 10
181.0442371767922
 20
-85.59977300999061
 30
0.0
 10
181.0442371767922
 20
-85.59977300999061
 30
0.0
 10
181.0442371767922
 20
-85.59977300999061
 30
0.0
 10
181.0442371767922
 20
-85.59977300999061
 30
0.0
 10
181.0442371767922
 20
-85.59977300999061
 30
0.0
 10
181.0442371767922
 20
-85.59977300999061
 30
0.0
 10
181.0442371767922
 20
-85.59977300999061
 30
0.0
 10
181.0442371767922
 20
-85.59977300999061
 30
0.0
 10
181.0442371767922
 20
-85.59977300999061
 30
0.0
 10
181.0442371767922
 20
-85.59977300999061
 30
0.0
 10
181.0442371767922
 20
-85.59977300999061
 30
0.0
 10
181.0442371767922
 20
-85.59977300999061
 30
0.0
 10
181.0442371767922
 20
-85.59977300999061
 30
0.0
 10
181.0442371767922
 20
-85.59977300999061
 30
0.0
 10
181.0442371767922
 20
-85.59977300999061
 30
0.0
 10
181.0442371767922
 20
-85.59977300999061
 30
0.0
 10
181.0442371767922
 20
-85.59977300999061
 30
0.0
 10
181.0442371767922
 20
-85.59977300999061
 30
0.0
 10
181.0442371767922
 20
-85.59977300999061
 30
0.0
 10
181.0442371767922
 20
-85.59977300999061
 30
0.0
 10
181.0442371767922
 20
-85.59977300999061
 30
0.0
 10
181.0442371767922
 20
-85.59977300999061
 30
0.0
  0
ENDBLK
  5
4D
330
4A
100
AcDbEntity
  8
0
100
AcDbBlockEnd
  0
BLOCK
  5
51
330
4F
100
AcDbEntity
  8
0
100
AcDbBlockBegin
  2
BLOCK_5
 70
     0
 10
0.0
 20
0.0
 30
0.0
  3
BLOCK_5
  1

  0
INSERT
  5
54
330
4F
100
AcDbEntity
  8
LIVELLO_1
100
AcDbBlockReference
  2
BLOCK_6
 10
0.0
 20
0.0
 30
0.0
  0
INSERT
  5
59
330
4F
100
AcDbEntity
  8
LIVELLO_1
100
AcDbBlockReference
  2
BLOCK_7
 10
0.0
 20
0.0
 30
0.0
  0
ENDBLK
  5
52
330
4F
100
AcDbEntity
  8
0
100
AcDbBlockEnd
  0
BLOCK
  5
55
330
53
100
AcDbEntity
  8
0
100
AcDbBlockBegin
  2
BLOCK_6
 70
     0
 10
0.0
 20
0.0
 30
0.0
  3
BLOCK_6
  1

  0
SPLINE
  5
57
330
53
100
AcDbEntity
  8
LIVELLO_1
 62
     7
100
AcDbSpline
210
0.0
220
0.0
230
1.0
 70
    11
 71
     3
 72
   125
 73
   121
 74
     0
 42
0.0000000001
 43
0.0000000001
 12
1.0
 22
0.0
 32
0.0
 13
1.0
 23
0.0
 33
0.0
 40
0.0
 40
0.0
 40
0.0
 40
0.0
 40
1.0
 40
1.0
 40
1.0
 40
2.0
 40
2.0
 40
2.0
 40
3.0
 40
3.0
 40
3.0
 40
4.0
 40
4.0
 40
4.0
 40
5.0
 40
5.0
 40
5.0
 40
6.0
 40
6.0
 40
6.0
 40
7.0
 40
7.0
 40
7.0
 40
8.0
 40
8.0
 40
8.0
 40
9.0
 40
9.0
 40
9.0
 40
10.0
 40
10.0
 40
10.0
 40
11.0
 40
11.0
 40
11.0
 40
12.0
 40
12.0
 40
12.0
 40
13.0
 40
13.0
 40
13.0
 40
14.0
 40
14.0
 40
14.0
 40
15.0
 40
15.0
 40
15.0
 40
16.0
 40
16.0
 40
16.0
 40
17.0
 40
17.0
 40
17.0
 40
18.0
 40
18.0
 40
18.0
 40
19.0
 40
19.0
 40
19.0
 40
20.0
 40
20.0
 40
20.0
 40
21.0
 40
21.0
 40
21.0
 40
22.0
 40
22.0
 40
22.0
 40
23.0
 40
23.0
 40
23.0
 40
24.0
 40
24.0
 40
24.0
 40
25.0
 40
25.0
 40
25.0
 40
26.0
 40
26.0
 40
26.0
 40
27.0
 40
27.0
 40
27.0
 40
28.0
 40
28.0
 40
28.0
 40
29.0
 40
29.0
 40
29.0
 40
30.0
 40
30.0
 40
30.0
 40
31.0
 40
31.0
 40
31.0
 40
32.0
 40
32.0
 40
32.0
 40
33.0
 40
33.0
 40
33.0
 40
34.0
 40
34.0
 40
34.0
 40
35.0
 40
35.0
 40
35.0
 40
36.0
 40
36.0
 40
36.0
 40
37.0
 40
37.0
 40
37.0
 40
38.0
 40
38.0
 40
38.0
 40
39.0
 40
39.0
 40
39.0
 40
40.0
 40
40.0
 40
40.0
 40
40.0
 10
114.0442371767921
 20
-124.8610420185608
 30
0.0
 10
114.0442371767921
 20
-124.7747475263998
 30
0.0
 10
114.052981615272
 20
-124.6904954072789
 30
0.0
 10
114.0696327340518
 20
-124.6091234193779
 30
0.0
 10
114.0862838528315
 20
-124.5277514314776
 30
0.0
 10
114.1108416519113
 20
-124.4492595747966
 30
0.0
 10
114.1424683731108
 20
-124.3744856075167
 30
0.0
 10
114.1740950943105
 20
-124.2997116402368
 30
0.0
 10
114.2127907376302
 20
-124.2286555623567
 30
0.0
 10
114.2577175448899
 20
-124.1621551320569
 30
0.0
 10
114.3026443521496
 20
-124.0956547017564
 30
0.0
 10
114.353802323349
 20
-124.033709919037
 30
0.0
 10
114.4103537003089
 20
-123.9771585420771
 30
0.0
 10
114.4669050772688
 20
-123.9206071651178
 30
0.0
 10
114.5288498599883
 20
-123.869449193918
 30
0.0
 10
114.5953502902884
 20
-123.8245223866583
 30
0.0
 10
114.6618507205882
 20
-123.7795955793986
 30
0.0
 10
114.7329067984683
 20
-123.740899936079
 30
0.0
 10
114.8076807657485
 20
-123.7092732148792
 30
0.0
 10
114.8824547330288
 20
-123.6776464936795
 30
0.0
 10
114.9609465897091
 20
-123.6530886946003
 30
0.0
 10
115.0423185776098
 20
-123.6364375758203
 30
0.0
 10
115.1236905655104
 20
-123.6197864570408
 30
0.0
 10
115.207942684631
 20
-123.6110420185606
 30
0.0
 10
115.2942371767923
 20
-123.6110420185606
 30
0.0
 10
115.3805316689536
 20
-123.6110420185606
 30
0.0
 10
115.4647837880742
 20
-123.6197864570408
 30
0.0
 10
115.5461557759748
 20
-123.6364375758203
 30
0.0
 10
115.6275277638754
 20
-123.6530886946003
 30
0.0
 10
115.7060196205558
 20
-123.6776464936795
 30
0.0
 10
115.780793587836
 20
-123.7092732148792
 30
0.0
 10
115.855567555116
 20
-123.740899936079
 30
0.0
 10
115.9266236329961
 20
-123.7795955793986
 30
0.0
 10
115.9931240632959
 20
-123.8245223866583
 30
0.0
 10
116.0596244935956
 20
-123.869449193918
 30
0.0
 10
116.1215692763157
 20
-123.9206071651178
 30
0.0
 10
116.1781206532753
 20
-123.9771585420771
 30
0.0
 10
116.234672030235
 20
-124.033709919037
 30
0.0
 10
116.2858300014347
 20
-124.0956547017564
 30
0.0
 10
116.3307568086944
 20
-124.1621551320569
 30
0.0
 10
116.3756836159541
 20
-124.2286555623567
 30
0.0
 10
116.4143792592737
 20
-124.2997116402368
 30
0.0
 10
116.4460059804735
 20
-124.3744856075167
 30
0.0
 10
116.4776327016732
 20
-124.4492595747966
 30
0.0
 10
116.5021905007527
 20
-124.5277514314776
 30
0.0
 10
116.5188416195325
 20
-124.6091234193779
 30
0.0
 10
116.5354927383122
 20
-124.6904954072789
 30
0.0
 10
116.5442371767922
 20
-124.7747475263998
 30
0.0
 10
116.5442371767922
 20
-124.8610420185608
 30
0.0
 10
116.5442371767922
 20
-124.9473365107218
 30
0.0
 10
116.5354927383122
 20
-125.0315886298426
 30
0.0
 10
116.5188416195325
 20
-125.112960617743
 30
0.0
 10
116.5021905007527
 20
-125.1943326056433
 30
0.0
 10
116.4776327016732
 20
-125.2728244623236
 30
0.0
 10
116.4460059804735
 20
-125.3475984296042
 30
0.0
 10
116.4143792592737
 20
-125.4223723968841
 30
0.0
 10
116.3756836159541
 20
-125.4934284747642
 30
0.0
 10
116.3307568086944
 20
-125.559928905064
 30
0.0
 10
116.2858300014347
 20
-125.6264293353638
 30
0.0
 10
116.234672030235
 20
-125.6883741180839
 30
0.0
 10
116.1781206532753
 20
-125.7449254950432
 30
0.0
 10
116.1215692763157
 20
-125.8014768720031
 30
0.0
 10
116.0596244935956
 20
-125.8526348432028
 30
0.0
 10
115.9931240632959
 20
-125.8975616504625
 30
0.0
 10
115.9266236329961
 20
-125.9424884577222
 30
0.0
 10
115.855567555116
 20
-125.9811841010419
 30
0.0
 10
115.780793587836
 20
-126.0128108222416
 30
0.0
 10
115.7060196205558
 20
-126.0444375434414
 30
0.0
 10
115.6275277638754
 20
-126.0689953425212
 30
0.0
 10
115.5461557759748
 20
-126.0856464613006
 30
0.0
 10
115.4647837880742
 20
-126.1022975800807
 30
0.0
 10
115.3805316689536
 20
-126.1110420185603
 30
0.0
 10
115.2942371767923
 20
-126.1110420185603
 30
0.0
 10
115.207942684631
 20
-126.1110420185603
 30
0.0
 10
115.1236905655104
 20
-126.1022975800807
 30
0.0
 10
115.0423185776098
 20
-126.0856464613006
 30
0.0
 10
114.9609465897091
 20
-126.0689953425212
 30
0.0
 10
114.8824547330288
 20
-126.0444375434414
 30
0.0
 10
114.8076807657485
 20
-126.0128108222416
 30
0.0
 10
114.7329067984683
 20
-125.9811841010419
 30
0.0
 10
114.6618507205882
 20
-125.9424884577222
 30
0.0
 10
114.5953502902884
 20
-125.8975616504625
 30
0.0
 10
114.5288498599883
 20
-125.8526348432028
 30
0.0
 10
114.4669050772688
 20
-125.8014768720031
 30
0.0
 10
114.4103537003089
 20
-125.7449254950432
 30
0.0
 10
114.353802323349
 20
-125.6883741180839
 30
0.0
 10
114.3026443521496
 20
-125.6264293353638
 30
0.0
 10
114.2577175448899
 20
-125.559928905064
 30
0.0
 10
114.2127907376302
 20
-125.4934284747642
 30
0.0
 10
114.1740950943105
 20
-125.4223723968841
 30
0.0
 10
114.1424683731108
 20
-125.3475984296042
 30
0.0
 10
114.1108416519113
 20
-125.2728244623236
 30
0.0
 10
114.0862838528315
 20
-125.1943326056433
 30
0.0
 10
114.0696327340518
 20
-125.112960617743
 30
0.0
 10
114.052981615272
 20
-125.0315886298426
 30
0.0
 10
114.0442371767921
 20
-124.9473365107218
 30
0.0
 10
114.0442371767921
 20
-124.8610420185608
 30
0.0
 10
114.0442371767921
 20
-124.8610420185608
 30
0.0
 10
114.0442371767921
 20
-124.8610420185608
 30
0.0
 10
114.0442371767921
 20
-124.8610420185608
 30
0.0
 10
114.0442371767921
 20
-124.8610420185608
 30
0.0
 10
114.0442371767921
 20
-124.8610420185608
 30
0.0
 10
114.0442371767921
 20
-124.8610420185608
 30
0.0
 10
114.0442371767921
 20
-124.8610420185608
 30
0.0
 10
114.0442371767921
 20
-124.8610420185608
 30
0.0
 10
114.0442371767921
 20
-124.8610420185608
 30
0.0
 10
114.0442371767921
 20
-124.8610420185608
 30
0.0
 10
114.0442371767921
 20
-124.8610420185608
 30
0.0
 10
114.0442371767921
 20
-124.8610420185608
 30
0.0
 10
114.0442371767921
 20
-124.8610420185608
 30
0.0
 10
114.0442371767921
 20
-124.8610420185608
 30
0.0
 10
114.0442371767921
 20
-124.8610420185608
 30
0.0
 10
114.0442371767921
 20
-124.8610420185608
 30
0.0
 10
114.0442371767921
 20
-124.8610420185608
 30
0.0
 10
114.0442371767921
 20
-124.8610420185608
 30
0.0
 10
114.0442371767921
 20
-124.8610420185608
 30
0.0
 10
114.0442371767921
 20
-124.8610420185608
 30
0.0
 10
114.0442371767921
 20
-124.8610420185608
 30
0.0
 10
114.0442371767921
 20
-124.8610420185608
 30
0.0
 10
114.0442371767921
 20
-124.8610420185608
 30
0.0
 10
114.0442371767921
 20
-124.8610420185608
 30
0.0
  0
ENDBLK
  5
56
330
53
100
AcDbEntity
  8
0
100
AcDbBlockEnd
  0
BLOCK
  5
5A
330
58
100
AcDbEntity
  8
0
100
AcDbBlockBegin
  2
BLOCK_7
 70
     0
 10
0.0
 20
0.0
 30
0.0
  3
BLOCK_7
  1

  0
SPLINE
  5
5C
330
58
100
AcDbEntity
  8
LIVELLO_1
 62
     7
100
AcDbSpline
210
0.0
220
0.0
230
1.0
 70
    11
 71
     3
 72
   125
 73
   121
 74
     0
 42
0.0000000001
 43
0.0000000001
 12
1.0
 22
0.0
 32
0.0
 13
1.0
 23
0.0
 33
0.0
 40
0.0
 40
0.0
 40
0.0
 40
0.0
 40
1.0
 40
1.0
 40
1.0
 40
2.0
 40
2.0
 40
2.0
 40
3.0
 40
3.0
 40
3.0
 40
4.0
 40
4.0
 40
4.0
 40
5.0
 40
5.0
 40
5.0
 40
6.0
 40
6.0
 40
6.0
 40
7.0
 40
7.0
 40
7.0
 40
8.0
 40
8.0
 40
8.0
 40
9.0
 40
9.0
 40
9.0
 40
10.0
 40
10.0
 40
10.0
 40
11.0
 40
11.0
 40
11.0
 40
12.0
 40
12.0
 40
12.0
 40
13.0
 40
13.0
 40
13.0
 40
14.0
 40
14.0
 40
14.0
 40
15.0
 40
15.0
 40
15.0
 40
16.0
 40
16.0
 40
16.0
 40
17.0
 40
17.0
 40
17.0
 40
18.0
 40
18.0
 40
18.0
 40
19.0
 40
19.0
 40
19.0
 40
20.0
 40
20.0
 40
20.0
 40
21.0
 40
21.0
 40
21.0
 40
22.0
 40
22.0
 40
22.0
 40
23.0
 40
23.0
 40
23.0
 40
24.0
 40
24.0
 40
24.0
 40
25.0
 40
25.0
 40
25.0
 40
26.0
 40
26.0
 40
26.0
 40
27.0
 40
27.0
 40
27.0
 40
28.0
 40
28.0
 40
28.0
 40
29.0
 40
29.0
 40
29.0
 40
30.0
 40
30.0
 40
30.0
 40
31.0
 40
31.0
 40
31.0
 40
32.0
 40
32.0
 40
32.0
 40
33.0
 40
33.0
 40
33.0
 40
34.0
 40
34.0
 40
34.0
 40
35.0
 40
35.0
 40
35.0
 40
36.0
 40
36.0
 40
36.0
 40
37.0
 40
37.0
 40
37.0
 40
38.0
 40
38.0
 40
38.0
 40
39.0
 40
39.0
 40
39.0
 40
40.0
 40
40.0
 40
40.0
 40
40.0
 10
181.0442371767922
 20
-124.8610420185608
 30
0.0
 10
181.0442371767922
 20
-124.7747475263998
 30
0.0
 10
181.0529816152718
 20
-124.6904954072789
 30
0.0
 10
181.0696327340519
 20
-124.6091234193779
 30
0.0
 10
181.0862838528313
 20
-124.5277514314776
 30
0.0
 10
181.1108416519111
 20
-124.4492595747966
 30
0.0
 10
181.1424683731109
 20
-124.3744856075167
 30
0.0
 10
181.1740950943106
 20
-124.2997116402368
 30
0.0
 10
181.2127907376303
 20
-124.2286555623567
 30
0.0
 10
181.25771754489
 20
-124.1621551320569
 30
0.0
 10
181.3026443521497
 20
-124.0956547017564
 30
0.0
 10
181.3538023233494
 20
-124.033709919037
 30
0.0
 10
181.4103537003093
 20
-123.9771585420771
 30
0.0
 10
181.4669050772686
 20
-123.9206071651178
 30
0.0
 10
181.5288498599887
 20
-123.869449193918
 30
0.0
 10
181.5953502902885
 20
-123.8245223866583
 30
0.0
 10
181.6618507205883
 20
-123.7795955793986
 30
0.0
 10
181.7329067984684
 20
-123.740899936079
 30
0.0
 10
181.8076807657483
 20
-123.7092732148792
 30
0.0
 10
181.8824547330289
 20
-123.6776464936795
 30
0.0
 10
181.9609465897092
 20
-123.6530886946003
 30
0.0
 10
182.0423185776096
 20
-123.6364375758203
 30
0.0
 10
182.1236905655099
 20
-123.6197864570408
 30
0.0
 10
182.2079426846308
 20
-123.6110420185606
 30
0.0
 10
182.2942371767918
 20
-123.6110420185606
 30
0.0
 10
182.3805316689528
 20
-123.6110420185606
 30
0.0
 10
182.4647837880736
 20
-123.6197864570408
 30
0.0
 10
182.5461557759746
 20
-123.6364375758203
 30
0.0
 10
182.6275277638749
 20
-123.6530886946003
 30
0.0
 10
182.7060196205559
 20
-123.6776464936795
 30
0.0
 10
182.7807935878359
 20
-123.7092732148792
 30
0.0
 10
182.8555675551158
 20
-123.740899936079
 30
0.0
 10
182.9266236329959
 20
-123.7795955793986
 30
0.0
 10
182.9931240632957
 20
-123.8245223866583
 30
0.0
 10
183.0596244935961
 20
-123.869449193918
 30
0.0
 10
183.1215692763155
 20
-123.9206071651178
 30
0.0
 10
183.1781206532755
 20
-123.9771585420771
 30
0.0
 10
183.2346720302347
 20
-124.033709919037
 30
0.0
 10
183.2858300014345
 20
-124.0956547017564
 30
0.0
 10
183.3307568086942
 20
-124.1621551320569
 30
0.0
 10
183.3756836159539
 20
-124.2286555623567
 30
0.0
 10
183.4143792592735
 20
-124.2997116402368
 30
0.0
 10
183.4460059804733
 20
-124.3744856075167
 30
0.0
 10
183.477632701673
 20
-124.4492595747966
 30
0.0
 10
183.5021905007522
 20
-124.5277514314776
 30
0.0
 10
183.5188416195323
 20
-124.6091234193779
 30
0.0
 10
183.5354927383117
 20
-124.6904954072789
 30
0.0
 10
183.544237176792
 20
-124.7747475263998
 30
0.0
 10
183.544237176792
 20
-124.8610420185608
 30
0.0
 10
183.544237176792
 20
-124.9473365107218
 30
0.0
 10
183.5354927383117
 20
-125.0315886298426
 30
0.0
 10
183.5188416195323
 20
-125.112960617743
 30
0.0
 10
183.5021905007522
 20
-125.1943326056433
 30
0.0
 10
183.477632701673
 20
-125.2728244623236
 30
0.0
 10
183.4460059804733
 20
-125.3475984296042
 30
0.0
 10
183.4143792592735
 20
-125.4223723968841
 30
0.0
 10
183.3756836159539
 20
-125.4934284747642
 30
0.0
 10
183.3307568086942
 20
-125.559928905064
 30
0.0
 10
183.2858300014345
 20
-125.6264293353638
 30
0.0
 10
183.2346720302347
 20
-125.6883741180839
 30
0.0
 10
183.1781206532755
 20
-125.7449254950432
 30
0.0
 10
183.1215692763155
 20
-125.8014768720031
 30
0.0
 10
183.0596244935961
 20
-125.8526348432028
 30
0.0
 10
182.9931240632957
 20
-125.8975616504625
 30
0.0
 10
182.9266236329959
 20
-125.9424884577222
 30
0.0
 10
182.8555675551158
 20
-125.9811841010419
 30
0.0
 10
182.7807935878359
 20
-126.0128108222416
 30
0.0
 10
182.7060196205559
 20
-126.0444375434414
 30
0.0
 10
182.6275277638749
 20
-126.0689953425212
 30
0.0
 10
182.5461557759746
 20
-126.0856464613006
 30
0.0
 10
182.4647837880736
 20
-126.1022975800807
 30
0.0
 10
182.3805316689528
 20
-126.1110420185603
 30
0.0
 10
182.2942371767918
 20
-126.1110420185603
 30
0.0
 10
182.2079426846308
 20
-126.1110420185603
 30
0.0
 10
182.1236905655099
 20
-126.1022975800807
 30
0.0
 10
182.0423185776096
 20
-126.0856464613006
 30
0.0
 10
181.9609465897092
 20
-126.0689953425212
 30
0.0
 10
181.8824547330289
 20
-126.0444375434414
 30
0.0
 10
181.8076807657483
 20
-126.0128108222416
 30
0.0
 10
181.7329067984684
 20
-125.9811841010419
 30
0.0
 10
181.6618507205883
 20
-125.9424884577222
 30
0.0
 10
181.5953502902885
 20
-125.8975616504625
 30
0.0
 10
181.5288498599887
 20
-125.8526348432028
 30
0.0
 10
181.4669050772686
 20
-125.8014768720031
 30
0.0
 10
181.4103537003093
 20
-125.7449254950432
 30
0.0
 10
181.3538023233494
 20
-125.6883741180839
 30
0.0
 10
181.3026443521497
 20
-125.6264293353638
 30
0.0
 10
181.25771754489
 20
-125.559928905064
 30
0.0
 10
181.2127907376303
 20
-125.4934284747642
 30
0.0
 10
181.1740950943106
 20
-125.4223723968841
 30
0.0
 10
181.1424683731109
 20
-125.3475984296042
 30
0.0
 10
181.1108416519111
 20
-125.2728244623236
 30
0.0
 10
181.0862838528313
 20
-125.1943326056433
 30
0.0
 10
181.0696327340519
 20
-125.112960617743
 30
0.0
 10
181.0529816152718
 20
-125.0315886298426
 30
0.0
 10
181.0442371767922
 20
-124.9473365107218
 30
0.0
 10
181.0442371767922
 20
-124.8610420185608
 30
0.0
 10
181.0442371767922
 20
-124.8610420185608
 30
0.0
 10
181.0442371767922
 20
-124.8610420185608
 30
0.0
 10
181.0442371767922
 20
-124.8610420185608
 30
0.0
 10
181.0442371767922
 20
-124.8610420185608
 30
0.0
 10
181.0442371767922
 20
-124.8610420185608
 30
0.0
 10
181.0442371767922
 20
-124.8610420185608
 30
0.0
 10
181.0442371767922
 20
-124.8610420185608
 30
0.0
 10
181.0442371767922
 20
-124.8610420185608
 30
0.0
 10
181.0442371767922
 20
-124.8610420185608
 30
0.0
 10
181.0442371767922
 20
-124.8610420185608
 30
0.0
 10
181.0442371767922
 20
-124.8610420185608
 30
0.0
 10
181.0442371767922
 20
-124.8610420185608
 30
0.0
 10
181.0442371767922
 20
-124.8610420185608
 30
0.0
 10
181.0442371767922
 20
-124.8610420185608
 30
0.0
 10
181.0442371767922
 20
-124.8610420185608
 30
0.0
 10
181.0442371767922
 20
-124.8610420185608
 30
0.0
 10
181.0442371767922
 20
-124.8610420185608
 30
0.0
 10
181.0442371767922
 20
-124.8610420185608
 30
0.0
 10
181.0442371767922
 20
-124.8610420185608
 30
0.0
 10
181.0442371767922
 20
-124.8610420185608
 30
0.0
 10
181.0442371767922
 20
-124.8610420185608
 30
0.0
 10
181.0442371767922
 20
-124.8610420185608
 30
0.0
 10
181.0442371767922
 20
-124.8610420185608
 30
0.0
 10
181.0442371767922
 20
-124.8610420185608
 30
0.0
  0
ENDBLK
  5
5B
330
58
100
AcDbEntity
  8
0
100
AcDbBlockEnd
  0
ENDSEC
  0
SECTION
  2
ENTITIES
  0
INSERT
  5
42
330
1F
100
AcDbEntity
  8
LIVELLO_1
100
AcDbBlockReference
  2
BLOCK_2
 10
0.0
 20
0.0
 30
0.0
  0
INSERT
  5
50
330
1F
100
AcDbEntity
  8
LIVELLO_1
100
AcDbBlockReference
  2
BLOCK_5
 10
0.0
 20
0.0
 30
0.0
  0
SPLINE
  5
5D
330
1F
100
AcDbEntity
  8
LIVELLO_1
 62
     7
100
AcDbSpline
210
0.0
220
0.0
230
1.0
 70
    11
 71
     3
 72
   197
 73
   193
 74
     0
 42
0.0000000001
 43
0.0000000001
 12
1.0
 22
0.0
 32
0.0
 13
1.0
 23
0.0
 33
0.0
 40
0.0
 40
0.0
 40
0.0
 40
0.0
 40
1.0
 40
1.0
 40
1.0
 40
2.0
 40
2.0
 40
2.0
 40
3.0
 40
3.0
 40
3.0
 40
4.0
 40
4.0
 40
4.0
 40
5.0
 40
5.0
 40
5.0
 40
6.0
 40
6.0
 40
6.0
 40
7.0
 40
7.0
 40
7.0
 40
8.0
 40
8.0
 40
8.0
 40
9.0
 40
9.0
 40
9.0
 40
10.0
 40
10.0
 40
10.0
 40
11.0
 40
11.0
 40
11.0
 40
12.0
 40
12.0
 40
12.0
 40
13.0
 40
13.0
 40
13.0
 40
14.0
 40
14.0
 40
14.0
 40
15.0
 40
15.0
 40
15.0
 40
16.0
 40
16.0
 40
16.0
 40
17.0
 40
17.0
 40
17.0
 40
18.0
 40
18.0
 40
18.0
 40
19.0
 40
19.0
 40
19.0
 40
20.0
 40
20.0
 40
20.0
 40
21.0
 40
21.0
 40
21.0
 40
22.0
 40
22.0
 40
22.0
 40
23.0
 40
23.0
 40
23.0
 40
24.0
 40
24.0
 40
24.0
 40
25.0
 40
25.0
 40
25.0
 40
26.0
 40
26.0
 40
26.0
 40
27.0
 40
27.0
 40
27.0
 40
28.0
 40
28.0
 40
28.0
 40
29.0
 40
29.0
 40
29.0
 40
30.0
 40
30.0
 40
30.0
 40
31.0
 40
31.0
 40
31.0
 40
32.0
 40
32.0
 40
32.0
 40
33.0
 40
33.0
 40
33.0
 40
34.0
 40
34.0
 40
34.0
 40
35.0
 40
35.0
 40
35.0
 40
36.0
 40
36.0
 40
36.0
 40
37.0
 40
37.0
 40
37.0
 40
38.0
 40
38.0
 40
38.0
 40
39.0
 40
39.0
 40
39.0
 40
40.0
 40
40.0
 40
40.0
 40
41.0
 40
41.0
 40
41.0
 40
42.0
 40
42.0
 40
42.0
 40
43.0
 40
43.0
 40
43.0
 40
44.0
 40
44.0
 40
44.0
 40
45.0
 40
45.0
 40
45.0
 40
46.0
 40
46.0
 40
46.0
 40
47.0
 40
47.0
 40
47.0
 40
48.0
 40
48.0
 40
48.0
 40
49.0
 40
49.0
 40
49.0
 40
50.0
 40
50.0
 40
50.0
 40
51.0
 40
51.0
 40
51.0
 40
52.0
 40
52.0
 40
52.0
 40
53.0
 40
53.0
 40
53.0
 40
54.0
 40
54.0
 40
54.0
 40
55.0
 40
55.0
 40
55.0
 40
56.0
 40
56.0
 40
56.0
 40
57.0
 40
57.0
 40
57.0
 40
58.0
 40
58.0
 40
58.0
 40
59.0
 40
59.0
 40
59.0
 40
60.0
 40
60.0
 40
60.0
 40
61.0
 40
61.0
 40
61.0
 40
62.0
 40
62.0
 40
62.0
 40
63.0
 40
63.0
 40
63.0
 40
64.0
 40
64.0
 40
64.0
 40
64.0
 10
186.7063380837883
 20
-130.3997728809122
 30
0.0
 10
186.7063380837883
 20
-130.5372728783943
 30
0.0
 10
186.6922755179879
 20
-130.6716478785224
 30
0.0
 10
186.6655175902116
 20
-130.8015306931755
 30
0.0
 10
186.6387596624354
 20
-130.9314135078274
 30
0.0
 10
186.5993063726833
 20
-131.0568041370043
 30
0.0
 10
186.5485249247818
 20
-131.1763353925829
 30
0.0
 10
186.4977434768802
 20
-131.2958666481615
 30
0.0
 10
186.435633870828
 20
-131.4095385301418
 30
0.0
 10
186.3635633104509
 20
-131.5159838504016
 30
0.0
 10
186.2914927500737
 20
-131.6224291706614
 30
0.0
 10
186.2094612353717
 20
-131.7216479292007
 30
0.0
 10
186.11883597017
 20
-131.8122729378974
 30
0.0
 10
186.0282107049682
 20
-131.9028979465941
 30
0.0
 10
185.9289916892667
 20
-131.9849292054488
 30
0.0
 10
185.8225461268907
 20
-132.056999526338
 30
0.0
 10
185.7161005645146
 20
-132.129069847228
 30
0.0
 10
185.602428455464
 20
-132.1911792301524
 30
0.0
 10
185.482897003564
 20
-132.2419604869894
 30
0.0
 10
185.3633655516639
 20
-132.2927417438269
 30
0.0
 10
185.2379747569152
 20
-132.3321948745769
 30
0.0
 10
185.1080918231422
 20
-132.3589526911185
 30
0.0
 10
184.9782088893698
 20
-132.3857105076588
 30
0.0
 10
184.8438338165725
 20
-132.3997730099907
 30
0.0
 10
184.7063338085768
 20
-132.3997730099907
 30
0.0
 10
184.7063338085768
 20
-132.3997730099907
 30
0.0
 10
175.7283096506305
 20
-132.3997730099907
 30
0.0
 10
175.7283096506305
 20
-132.3997730099907
 30
0.0
 10
175.7283096506305
 20
-132.3997730099907
 30
0.0
 10
166.7502854926842
 20
-132.3997730099907
 30
0.0
 10
166.7502854926842
 20
-132.3997730099907
 30
0.0
 10
166.7502854926842
 20
-132.3997730099907
 30
0.0
 10
157.7722613347379
 20
-132.3997730099907
 30
0.0
 10
157.7722613347379
 20
-132.3997730099907
 30
0.0
 10
157.7722613347379
 20
-132.3997730099907
 30
0.0
 10
148.7942371767919
 20
-132.3997730099907
 30
0.0
 10
148.7942371767919
 20
-132.3997730099907
 30
0.0
 10
148.7942371767919
 20
-132.3997730099907
 30
0.0
 10
139.8162130188459
 20
-132.3997730099907
 30
0.0
 10
139.8162130188459
 20
-132.3997730099907
 30
0.0
 10
139.8162130188459
 20
-132.3997730099907
 30
0.0
 10
130.8381888608995
 20
-132.3997730099907
 30
0.0
 10
130.8381888608995
 20
-132.3997730099907
 30
0.0
 10
130.8381888608995
 20
-132.3997730099907
 30
0.0
 10
121.8601647029532
 20
-132.3997730099907
 30
0.0
 10
121.8601647029532
 20
-132.3997730099907
 30
0.0
 10
121.8601647029532
 20
-132.3997730099907
 30
0.0
 10
112.8821405450069
 20
-132.3997730099907
 30
0.0
 10
112.8821405450069
 20
-132.3997730099907
 30
0.0
 10
112.7446405370112
 20
-132.3997730099907
 30
0.0
 10
112.6102654642143
 20
-132.3857105076588
 30
0.0
 10
112.4803825304413
 20
-132.3589526911185
 30
0.0
 10
112.3504995966686
 20
-132.3321948745769
 30
0.0
 10
112.2251088019195
 20
-132.2927417438269
 30
0.0
 10
112.1055773500198
 20
-132.2419604869894
 30
0.0
 10
111.9860458981201
 20
-132.1911792301524
 30
0.0
 10
111.8723737890698
 20
-132.129069847228
 30
0.0
 10
111.7659282266937
 20
-132.056999526338
 30
0.0
 10
111.6594826643177
 20
-131.9849292054488
 30
0.0
 10
111.5602636486162
 20
-131.9028979465941
 30
0.0
 10
111.4696383834141
 20
-131.8122729378974
 30
0.0
 10
111.379013118212
 20
-131.7216479292007
 30
0.0
 10
111.29698160351
 20
-131.6224291706614
 30
0.0
 10
111.2249110431329
 20
-131.5159838504016
 30
0.0
 10
111.1528404827557
 20
-131.4095385301418
 30
0.0
 10
111.0907308767038
 20
-131.2958666481615
 30
0.0
 10
111.039949428802
 20
-131.1763353925829
 30
0.0
 10
110.9891679809001
 20
-131.0568041370043
 30
0.0
 10
110.9497146911483
 20
-130.9314135078274
 30
0.0
 10
110.9229567633724
 20
-130.8015306931755
 30
0.0
 10
110.8961988355962
 20
-130.6716478785224
 30
0.0
 10
110.8821362697955
 20
-130.5372728783943
 30
0.0
 10
110.8821362697955
 20
-130.3997728809122
 30
0.0
 10
110.8821362697955
 20
-130.3997728809122
 30
0.0
 10
110.8821362697955
 20
-124.1074316028041
 30
0.0
 10
110.8821362697955
 20
-124.1074316028041
 30
0.0
 10
110.8821362697955
 20
-124.1074316028041
 30
0.0
 10
110.8821362697955
 20
-117.8150903246966
 30
0.0
 10
110.8821362697955
 20
-117.8150903246966
 30
0.0
 10
110.8821362697955
 20
-117.8150903246966
 30
0.0
 10
110.8821362697955
 20
-111.5227490465892
 30
0.0
 10
110.8821362697955
 20
-111.5227490465892
 30
0.0
 10
110.8821362697955
 20
-111.5227490465892
 30
0.0
 10
110.8821362697955
 20
-105.2304077684814
 30
0.0
 10
110.8821362697955
 20
-105.2304077684814
 30
0.0
 10
110.8821362697955
 20
-105.2304077684814
 30
0.0
 10
110.8821362697955
 20
-98.93806649037361
 30
0.0
 10
110.8821362697955
 20
-98.93806649037361
 30
0.0
 10
110.8821362697955
 20
-98.93806649037361
 30
0.0
 10
110.8821362697955
 20
-92.64572521226616
 30
0.0
 10
110.8821362697955
 20
-92.64572521226616
 30
0.0
 10
110.8821362697955
 20
-92.64572521226616
 30
0.0
 10
110.8821362697955
 20
-86.35338393415837
 30
0.0
 10
110.8821362697955
 20
-86.35338393415837
 30
0.0
 10
110.8821362697955
 20
-86.35338393415837
 30
0.0
 10
110.8821362697955
 20
-80.0610426560506
 30
0.0
 10
110.8821362697955
 20
-80.0610426560506
 30
0.0
 10
110.8821362697955
 20
-79.92354265856851
 30
0.0
 10
110.8961988355962
 20
-79.78916765844012
 30
0.0
 10
110.9229567633724
 20
-79.65928484378762
 30
0.0
 10
110.9497146911483
 20
-79.52940202913511
 30
0.0
 10
110.9891679809001
 20
-79.40401139995848
 30
0.0
 10
111.039949428802
 20
-79.28448014438018
 30
0.0
 10
111.0907308767038
 20
-79.16494888880189
 30
0.0
 10
111.1528404827557
 20
-79.0512770068216
 30
0.0
 10
111.2249110431329
 20
-78.9448316865615
 30
0.0
 10
111.29698160351
 20
-78.8383863663017
 30
0.0
 10
111.379013118212
 20
-78.73916760776207
 30
0.0
 10
111.4696383834141
 20
-78.6485425990654
 30
0.0
 10
111.5602636486162
 20
-78.55791759036839
 30
0.0
 10
111.6594826643177
 20
-78.47588633151402
 30
0.0
 10
111.7659282266937
 20
-78.40381601062475
 30
0.0
 10
111.8723737890698
 20
-78.33174568973547
 30
0.0
 10
111.9860458981201
 20
-78.26963630681098
 30
0.0
 10
112.1055773500198
 20
-78.21885504997341
 30
0.0
 10
112.2251088019195
 20
-78.16807379313617
 30
0.0
 10
112.3504995966686
 20
-78.12862066238584
 30
0.0
 10
112.4803825304413
 20
-78.10186284584492
 30
0.0
 10
112.6102654642143
 20
-78.07510502930398
 30
0.0
 10
112.7446405370112
 20
-78.06104252697244
 30
0.0
 10
112.8821405450069
 20
-78.06104252697244
 30
0.0
 10
112.8821405450069
 20
-78.06104252697244
 30
0.0
 10
121.8601647029532
 20
-78.06104252697244
 30
0.0
 10
121.8601647029532
 20
-78.06104252697244
 30
0.0
 10
121.8601647029532
 20
-78.06104252697244
 30
0.0
 10
130.8381888608995
 20
-78.06104252697244
 30
0.0
 10
130.8381888608995
 20
-78.06104252697244
 30
0.0
 10
130.8381888608995
 20
-78.06104252697244
 30
0.0
 10
139.8162130188459
 20
-78.06104252697244
 30
0.0
 10
139.8162130188459
 20
-78.06104252697244
 30
0.0
 10
139.8162130188459
 20
-78.06104252697244
 30
0.0
 10
148.7942371767919
 20
-78.06104252697244
 30
0.0
 10
148.7942371767919
 20
-78.06104252697244
 30
0.0
 10
148.7942371767919
 20
-78.06104252697244
 30
0.0
 10
157.7722613347379
 20
-78.06104252697244
 30
0.0
 10
157.7722613347379
 20
-78.06104252697244
 30
0.0
 10
157.7722613347379
 20
-78.06104252697244
 30
0.0
 10
166.7502854926842
 20
-78.06104252697244
 30
0.0
 10
166.7502854926842
 20
-78.06104252697244
 30
0.0
 10
166.7502854926842
 20
-78.06104252697244
 30
0.0
 10
175.7283096506305
 20
-78.06104252697244
 30
0.0
 10
175.7283096506305
 20
-78.06104252697244
 30
0.0
 10
175.7283096506305
 20
-78.06104252697244
 30
0.0
 10
184.7063338085768
 20
-78.06104252697244
 30
0.0
 10
184.7063338085768
 20
-78.06104252697244
 30
0.0
 10
184.8438338165725
 20
-78.06104252697244
 30
0.0
 10
184.9782088893698
 20
-78.07510502930398
 30
0.0
 10
185.1080918231422
 20
-78.10186284584492
 30
0.0
 10
185.2379747569152
 20
-78.12862066238584
 30
0.0
 10
185.3633655516639
 20
-78.16807379313617
 30
0.0
 10
185.482897003564
 20
-78.21885504997341
 30
0.0
 10
185.602428455464
 20
-78.26963630681098
 30
0.0
 10
185.7161005645146
 20
-78.33174568973547
 30
0.0
 10
185.8225461268907
 20
-78.40381601062475
 30
0.0
 10
185.9289916892667
 20
-78.47588633151402
 30
0.0
 10
186.0282107049682
 20
-78.55791759036839
 30
0.0
 10
186.11883597017
 20
-78.6485425990654
 30
0.0
 10
186.2094612353717
 20
-78.73916760776207
 30
0.0
 10
186.2914927500737
 20
-78.8383863663017
 30
0.0
 10
186.3635633104509
 20
-78.9448316865615
 30
0.0
 10
186.435633870828
 20
-79.0512770068216
 30
0.0
 10
186.4977434768802
 20
-79.16494888880189
 30
0.0
 10
186.5485249247818
 20
-79.28448014438018
 30
0.0
 10
186.5993063726833
 20
-79.40401139995848
 30
0.0
 10
186.6387596624354
 20
-79.52940202913511
 30
0.0
 10
186.6655175902116
 20
-79.65928484378762
 30
0.0
 10
186.6922755179879
 20
-79.78916765844012
 30
0.0
 10
186.7063380837883
 20
-79.92354265856851
 30
0.0
 10
186.7063380837883
 20
-80.0610426560506
 30
0.0
 10
186.7063380837883
 20
-80.0610426560506
 30
0.0
 10
186.7063380837883
 20
-86.35338393415837
 30
0.0
 10
186.7063380837883
 20
-86.35338393415837
 30
0.0
 10
186.7063380837883
 20
-86.35338393415837
 30
0.0
 10
186.7063380837883
 20
-92.64572521226616
 30
0.0
 10
186.7063380837883
 20
-92.64572521226616
 30
0.0
 10
186.7063380837883
 20
-92.64572521226616
 30
0.0
 10
186.7063380837883
 20
-98.93806649037361
 30
0.0
 10
186.7063380837883
 20
-98.93806649037361
 30
0.0
 10
186.7063380837883
 20
-98.93806649037361
 30
0.0
 10
186.7063380837883
 20
-105.2304077684814
 30
0.0
 10
186.7063380837883
 20
-105.2304077684814
 30
0.0
 10
186.7063380837883
 20
-105.2304077684814
 30
0.0
 10
186.7063380837883
 20
-111.5227490465892
 30
0.0
 10
186.7063380837883
 20
-111.5227490465892
 30
0.0
 10
186.7063380837883
 20
-111.5227490465892
 30
0.0
 10
186.7063380837883
 20
-117.8150903246966
 30
0.0
 10
186.7063380837883
 20
-117.8150903246966
 30
0.0
 10
186.7063380837883
 20
-117.8150903246966
 30
0.0
 10
186.7063380837883
 20
-124.1074316028041
 30
0.0
 10
186.7063380837883
 20
-124.1074316028041
 30
0.0
 10
186.7063380837883
 20
-124.1074316028041
 30
0.0
 10
186.7063380837883
 20
-130.3997728809122
 30
0.0
 10
186.7063380837883
 20
-130.3997728809122
 30
0.0
  0
ENDSEC
  0
SECTION
  2
OBJECTS
  0
DICTIONARY
  5
C
330
0
100
AcDbDictionary
  3
ACAD_GROUP
350
D
  3
ACAD_LAYOUT
350
1A
  3
ACAD_MATERIAL
350
3B
  3
ACAD_MLEADERSTYLE
350
60
  3
ACAD_MLINESTYLE
350
17
  3
ACAD_PLOTSETTINGS
350
19
  3
ACAD_VISUALSTYLE
350
2A
  3
ACDBVARIABLEDICTIONARY
350
5E
1001
ACAD
1000
TREAT_AS_HARD
1070
     0
  0
DICTIONARY
  5
D
102
{ACAD_REACTORS
330
C
102
}
330
C
100
AcDbDictionary
1001
ACAD
1000
TREAT_AS_HARD
1070
     0
  0
DICTIONARY
  5
1A
102
{ACAD_REACTORS
330
C
102
}
330
C
100
AcDbDictionary
1001
ACAD
1000
TREAT_AS_HARD
1070
     0
  0
DICTIONARY
  5
3B
102
{ACAD_REACTORS
330
C
102
}
330
C
100
AcDbDictionary
  3
BYBLOCK
350
3D
  3
BYLAYER
350
3C
  3
GLOBAL
350
3E
1001
ACAD
1000
TREAT_AS_HARD
1070
     0
  0
DICTIONARY
  5
60
102
{ACAD_REACTORS
330
C
102
}
330
C
100
AcDbDictionary
1001
ACAD
1000
TREAT_AS_HARD
1070
     0
  0
DICTIONARY
  5
17
102
{ACAD_REACTORS
330
C
102
}
330
C
100
AcDbDictionary
  3
STANDARD
350
18
1001
ACAD
1000
TREAT_AS_HARD
1070
     0
  0
DICTIONARY
  5
19
102
{ACAD_REACTORS
330
C
102
}
330
C
100
AcDbDictionary
1001
ACAD
1000
TREAT_AS_HARD
1070
     0
  0
DICTIONARY
  5
2A
102
{ACAD_REACTORS
330
C
102
}
330
C
100
AcDbDictionary
  3
2DWIREFRAME
350
2F
  3
3DWIREFRAME
350
30
  3
3D_HIDDEN
350
31
  3
BASIC
350
32
  3
BRIGHTEN
350
36
  3
COLORCHANGE
350
3A
  3
CONCEPTUAL
350
34
  3
DIM
350
35
  3
FACEPATTERN
350
39
  3
FLAT
350
2B
  3
FLATWITHEDGES
350
2C
  3
GOURAUD
350
2D
  3
GOURAUDWITHEDGES
350
2E
  3
LINEPATTERN
350
38
  3
REALISTIC
350
33
  3
THICKEN
350
37
1001
ACAD
1000
TREAT_AS_HARD
1070
     0
  0
DICTIONARY
  5
5E
102
{ACAD_REACTORS
330
C
102
}
330
C
100
AcDbDictionary
  3
DIMASSOC
350
61
  3
HIDETEXT
350
62
1001
ACAD
1000
TREAT_AS_HARD
1070
     0
  0
MATERIAL
  5
3D
102
{ACAD_REACTORS
330
3B
102
}
102
{ACAD_XDICTIONARY
360
65
102
}
330
3B
100
AcDbMaterial
  1
ByBlock
  0
MATERIAL
  5
3C
102
{ACAD_REACTORS
330
3B
102
}
102
{ACAD_XDICTIONARY
360
63
102
}
330
3B
100
AcDbMaterial
  1
ByLayer
  0
MATERIAL
  5
3E
102
{ACAD_REACTORS
330
3B
102
}
102
{ACAD_XDICTIONARY
360
67
102
}
330
3B
100
AcDbMaterial
  1
Global
  0
MLINESTYLE
  5
18
102
{ACAD_REACTORS
330
17
102
}
330
17
100
AcDbMlineStyle
  2
Standard
 70
     0
  3

 62
   256
 51
90.0
 52
90.0
 71
     2
 49
0.5
 62
   256
  6
BYLAYER
 49
-0.5
 62
   256
  6
BYLAYER
  0
ACAD_PROXY_OBJECT
  5
2F
102
{ACAD_REACTORS
330
2A
102
}
330
2A
100
AcDbZombieObject
 90
      499
 91
      501
 93
      436
310
42CC9915DA5C99599C985B595049028333333333333E3BF0000000000000FB0107901411070040501600405405064090741402480A0340
1001
ACAD
1000
AcDbSavedByObjectVersion
1070
     0
  0
ACAD_PROXY_OBJECT
  5
30
102
{ACAD_REACTORS
330
2A
102
}
330
2A
100
AcDbZombieObject
 90
      499
 91
      501
 93
      436
310
42CCD915DA5C99599C985B595059028333333333333E3BF0000000000000FB0107901411070040501600405405064090741402480A0340
1001
ACAD
1000
AcDbSavedByObjectVersion
1070
     0
  0
ACAD_PROXY_OBJECT
  5
31
102
{ACAD_REACTORS
330
2A
102
}
330
2A
100
AcDbZombieObject
 90
      499
 91
      501
 93
      500
310
424CD108121A5919195B90640502408333333333333E3BF0000000000000FB01079024090700405020000000000001110200405405064090740C02480A0340
1001
ACAD
1000
AcDbSavedByObjectVersion
1070
     0
  0
ACAD_PROXY_OBJECT
  5
32
102
{ACAD_REACTORS
330
2A
102
}
330
2A
100
AcDbZombieObject
 90
      499
 91
      501
 93
      388
310
4150985CDA58D07406404333333333333E3BF0000000000000FB0107A41107004050150841D405064090741402480A0350
1001
ACAD
1000
AcDbSavedByObjectVersion
1070
     0
  0
ACAD_PROXY_OBJECT
  5
36
102
{ACAD_REACTORS
330
2A
102
}
330
2A
100
AcDbZombieObject
 90
      499
 91
      501
 93
      428
310
42109C9A59DA1D195B90C409028333333333333E3BF0000000000000FB010790141107004050150841D405064090741402480A029950
1001
ACAD
1000
AcDbSavedByObjectVersion
1070
     0
  0
ACAD_PROXY_OBJECT
  5
3A
102
{ACAD_REACTORS
330
2A
102
}
330
2A
100
AcDbZombieObject
 90
      499
 91
      501
 93
      452
310
42D0DBDB1BDC90DA185B99D95104090240C333333333333E3BF0000000000000FB0108901411070040501508421405064090741402480A0350
1001
ACAD
1000
AcDbSavedByObjectVersion
1070
     0
  0
ACAD_PROXY_OBJECT
  5
34
102
{ACAD_REACTORS
330
2A
102
}
330
2A
100
AcDbZombieObject
 90
      499
 91
      501
 93
      500
310
4290DBDB98D95C1D1D585B10940D028333333333333E3BF0000000000000FB0107902409070040501000000000000111010841D405064090740C02480A0340
1001
ACAD
1000
AcDbSavedByObjectVersion
1070
     0
  0
ACAD_PROXY_OBJECT
  5
35
102
{ACAD_REACTORS
330
2A
102
}
330
2A
100
AcDbZombieObject
 90
      499
 91
      501
 93
      412
310
40D11A5B50B409028333333333333E3BF0000000000000FB010790141107004050150841D405064090741402480A02677FFFFFD0
1001
ACAD
1000
AcDbSavedByObjectVersion
1070
     0
  0
ACAD_PROXY_OBJECT
  5
39
102
{ACAD_REACTORS
330
2A
102
}
330
2A
100
AcDbZombieObject
 90
      499
 91
      501
 93
      444
310
42D19858D95C185D1D195C9B90F409028333333333333E3BF0000000000000FB010790141107004050150841D405064090741402480A0350
1001
ACAD
1000
AcDbSavedByObjectVersion
1070
     0
  0
ACAD_PROXY_OBJECT
  5
2B
102
{ACAD_REACTORS
330
2A
102
}
330
2A
100
AcDbZombieObject
 90
      499
 91
      501
 93
      388
310
41119B185D240901404333333333333E3BF0000000000000F9010740A41107004050150841D405064090741402480A1B50
1001
ACAD
1000
AcDbSavedByObjectVersion
1070
     0
  0
ACAD_PROXY_OBJECT
  5
2C
102
{ACAD_REACTORS
330
2A
102
}
330
2A
100
AcDbZombieObject
 90
      499
 91
      501
 93
      476
310
43519B185D15DA5D1A115919D95CD0140901404333333333333E3BF0000000000000F9010740901411070040501600405405064090741402480A1B50
1001
ACAD
1000
AcDbSavedByObjectVersion
1070
     0
  0
ACAD_PROXY_OBJECT
  5
2D
102
{ACAD_REACTORS
330
2A
102
}
330
2A
100
AcDbZombieObject
 90
      499
 91
      501
 93
      412
310
41D1DBDD5C985D5910240902404333333333333E3BF0000000000000F9010740A411070040501641D405064090741402480A1B50
1001
ACAD
1000
AcDbSavedByObjectVersion
1070
     0
  0
ACAD_PROXY_OBJECT
  5
2E
102
{ACAD_REACTORS
330
2A
102
}
330
2A
100
AcDbZombieObject
 90
      499
 91
      501
 93
      500
310
4411DBDD5C985D5915DA5D1A115919D95CD0340902404333333333333E3BF0000000000000F9010740901411070040501600405405064090741402480A1B50
1001
ACAD
1000
AcDbSavedByObjectVersion
1070
     0
  0
ACAD_PROXY_OBJECT
  5
38
102
{ACAD_REACTORS
330
2A
102
}
330
2A
100
AcDbZombieObject
 90
      499
 91
      501
 93
      444
310
42D31A5B995C185D1D195C9B90E409028333333333333E3BF0000000000000FB010790141107004050750841D405064090741402483A0350
1001
ACAD
1000
AcDbSavedByObjectVersion
1070
     0
  0
ACAD_PROXY_OBJECT
  5
33
102
{ACAD_REACTORS
330
2A
102
}
330
2A
100
AcDbZombieObject
 90
      499
 91
      501
 93
      420
310
425499585B1A5CDD1A58D08409028333333333333E3BF0000000000000FB01079019070040501508421405064090741402480A1B40
1001
ACAD
1000
AcDbSavedByObjectVersion
1070
     0
  0
ACAD_PROXY_OBJECT
  5
37
102
{ACAD_REACTORS
330
2A
102
}
330
2A
100
AcDbZombieObject
 90
      499
 91
      501
 93
      412
310
41D51A1A58DAD95B90D409028333333333333E3BF0000000000000FB010790141107004050150C41D405064090741402480A0350
1001
ACAD
1000
AcDbSavedByObjectVersion
1070
     0
  0
DICTIONARYVAR
  5
61
102
{ACAD_REACTORS
330
5E
102
}
330
5E
100
DictionaryVariables
280
     0
  1
2
  0
DICTIONARYVAR
  5
62
102
{ACAD_REACTORS
330
5E
102
}
330
5E
100
DictionaryVariables
280
     0
  1
1
  0
DICTIONARY
  5
65
330
3D
100
AcDbDictionary
  3
ACAD_XREC_ROUNDTRIP
360
66
1001
ACAD
1000
TREAT_AS_HARD
1070
     1
  0
DICTIONARY
  5
63
330
3C
100
AcDbDictionary
  3
ACAD_XREC_ROUNDTRIP
360
64
1001
ACAD
1000
TREAT_AS_HARD
1070
     1
  0
DICTIONARY
  5
67
330
3E
100
AcDbDictionary
  3
ACAD_XREC_ROUNDTRIP
360
68
1001
ACAD
1000
TREAT_AS_HARD
1070
     1
  0
XRECORD
  5
66
102
{ACAD_REACTORS
330
65
102
}
330
65
100
AcDbXrecord
102
MATERIAL
148
0.0
149
0.0
149
0.0
 93
        0
 94
      127
282
     0
 72
     1
 77
     1
171
     1
175
     1
179
     1
273
     0
  0
XRECORD
  5
64
102
{ACAD_REACTORS
330
63
102
}
330
63
100
AcDbXrecord
102
MATERIAL
148
0.0
149
0.0
149
0.0
 93
        0
 94
      127
282
     0
 72
     1
 77
     1
171
     1
175
     1
179
     1
273
     0
  0
XRECORD
  5
68
102
{ACAD_REACTORS
330
67
102
}
330
67
100
AcDbXrecord
102
MATERIAL
148
0.0
149
0.0
149
0.0
 93
        0
 94
      127
282
     0
 72
     1
 77
     1
171
     1
175
     1
179
     1
273
     0
  0
ENDSEC
  0
EOF
